solid cylinder
  facet normal 9.987955e-01 4.906711e-02 -0.000000e+00
    outer loop
      vertex 4.000000e-02 0.000000e+00 0.000000e+00
      vertex 3.980739e-02 3.920685e-03 0.000000e+00
      vertex 4.000000e-02 0.000000e+00 1.350000e-01
    endloop
  endfacet
  facet normal 9.987955e-01 4.906711e-02 -0.000000e+00
    outer loop
      vertex 3.980739e-02 3.920685e-03 0.000000e+00
      vertex 3.980739e-02 3.920685e-03 1.350000e-01
      vertex 4.000000e-02 0.000000e+00 1.350000e-01
    endloop
  endfacet
  facet normal 9.891766e-01 1.467306e-01 -0.000000e+00
    outer loop
      vertex 3.980739e-02 3.920685e-03 0.000000e+00
      vertex 3.923141e-02 7.803613e-03 0.000000e+00
      vertex 3.980739e-02 3.920685e-03 1.350000e-01
    endloop
  endfacet
  facet normal 9.891766e-01 1.467306e-01 -0.000000e+00
    outer loop
      vertex 3.923141e-02 7.803613e-03 0.000000e+00
      vertex 3.923141e-02 7.803613e-03 1.350000e-01
      vertex 3.980739e-02 3.920685e-03 1.350000e-01
    endloop
  endfacet
  facet normal 9.700313e-01 2.429801e-01 -0.000000e+00
    outer loop
      vertex 3.923141e-02 7.803613e-03 0.000000e+00
      vertex 3.827761e-02 1.161139e-02 0.000000e+00
      vertex 3.923141e-02 7.803613e-03 1.350000e-01
    endloop
  endfacet
  facet normal 9.700313e-01 2.429801e-01 -0.000000e+00
    outer loop
      vertex 3.827761e-02 1.161139e-02 0.000000e+00
      vertex 3.827761e-02 1.161139e-02 1.350000e-01
      vertex 3.923141e-02 7.803613e-03 1.350000e-01
    endloop
  endfacet
  facet normal 9.415440e-01 3.368902e-01 -0.000000e+00
    outer loop
      vertex 3.827761e-02 1.161139e-02 0.000000e+00
      vertex 3.695518e-02 1.530734e-02 0.000000e+00
      vertex 3.827761e-02 1.161139e-02 1.350000e-01
    endloop
  endfacet
  facet normal 9.415440e-01 3.368902e-01 -0.000000e+00
    outer loop
      vertex 3.695518e-02 1.530734e-02 0.000000e+00
      vertex 3.695518e-02 1.530734e-02 1.350000e-01
      vertex 3.827761e-02 1.161139e-02 1.350000e-01
    endloop
  endfacet
  facet normal 9.039891e-01 4.275554e-01 -0.000000e+00
    outer loop
      vertex 3.695518e-02 1.530734e-02 0.000000e+00
      vertex 3.527685e-02 1.885587e-02 0.000000e+00
      vertex 3.695518e-02 1.530734e-02 1.350000e-01
    endloop
  endfacet
  facet normal 9.039891e-01 4.275554e-01 -0.000000e+00
    outer loop
      vertex 3.527685e-02 1.885587e-02 0.000000e+00
      vertex 3.527685e-02 1.885587e-02 1.350000e-01
      vertex 3.695518e-02 1.530734e-02 1.350000e-01
    endloop
  endfacet
  facet normal 8.577288e-01 5.141024e-01 -0.000000e+00
    outer loop
      vertex 3.527685e-02 1.885587e-02 0.000000e+00
      vertex 3.325878e-02 2.222281e-02 0.000000e+00
      vertex 3.527685e-02 1.885587e-02 1.350000e-01
    endloop
  endfacet
  facet normal 8.577288e-01 5.141024e-01 -0.000000e+00
    outer loop
      vertex 3.325878e-02 2.222281e-02 0.000000e+00
      vertex 3.325878e-02 2.222281e-02 1.350000e-01
      vertex 3.527685e-02 1.885587e-02 1.350000e-01
    endloop
  endfacet
  facet normal 8.032075e-01 5.956994e-01 -0.000000e+00
    outer loop
      vertex 3.325878e-02 2.222281e-02 0.000000e+00
      vertex 3.092042e-02 2.537573e-02 0.000000e+00
      vertex 3.325878e-02 2.222281e-02 1.350000e-01
    endloop
  endfacet
  facet normal 8.032075e-01 5.956994e-01 -0.000000e+00
    outer loop
      vertex 3.092042e-02 2.537573e-02 0.000000e+00
      vertex 3.092042e-02 2.537573e-02 1.350000e-01
      vertex 3.325878e-02 2.222281e-02 1.350000e-01
    endloop
  endfacet
  facet normal 7.409509e-01 6.715592e-01 -0.000000e+00
    outer loop
      vertex 3.092042e-02 2.537573e-02 0.000000e+00
      vertex 2.828427e-02 2.828427e-02 0.000000e+00
      vertex 3.092042e-02 2.537573e-02 1.350000e-01
    endloop
  endfacet
  facet normal 7.409509e-01 6.715592e-01 -0.000000e+00
    outer loop
      vertex 2.828427e-02 2.828427e-02 0.000000e+00
      vertex 2.828427e-02 2.828427e-02 1.350000e-01
      vertex 3.092042e-02 2.537573e-02 1.350000e-01
    endloop
  endfacet
  facet normal 6.715592e-01 7.409509e-01 -0.000000e+00
    outer loop
      vertex 2.828427e-02 2.828427e-02 0.000000e+00
      vertex 2.537573e-02 3.092042e-02 0.000000e+00
      vertex 2.828427e-02 2.828427e-02 1.350000e-01
    endloop
  endfacet
  facet normal 6.715592e-01 7.409509e-01 -0.000000e+00
    outer loop
      vertex 2.537573e-02 3.092042e-02 0.000000e+00
      vertex 2.537573e-02 3.092042e-02 1.350000e-01
      vertex 2.828427e-02 2.828427e-02 1.350000e-01
    endloop
  endfacet
  facet normal 5.956994e-01 8.032075e-01 -0.000000e+00
    outer loop
      vertex 2.537573e-02 3.092042e-02 0.000000e+00
      vertex 2.222281e-02 3.325878e-02 0.000000e+00
      vertex 2.537573e-02 3.092042e-02 1.350000e-01
    endloop
  endfacet
  facet normal 5.956994e-01 8.032075e-01 -0.000000e+00
    outer loop
      vertex 2.222281e-02 3.325878e-02 0.000000e+00
      vertex 2.222281e-02 3.325878e-02 1.350000e-01
      vertex 2.537573e-02 3.092042e-02 1.350000e-01
    endloop
  endfacet
  facet normal 5.141024e-01 8.577288e-01 -0.000000e+00
    outer loop
      vertex 2.222281e-02 3.325878e-02 0.000000e+00
      vertex 1.885587e-02 3.527685e-02 0.000000e+00
      vertex 2.222281e-02 3.325878e-02 1.350000e-01
    endloop
  endfacet
  facet normal 5.141024e-01 8.577288e-01 -0.000000e+00
    outer loop
      vertex 1.885587e-02 3.527685e-02 0.000000e+00
      vertex 1.885587e-02 3.527685e-02 1.350000e-01
      vertex 2.222281e-02 3.325878e-02 1.350000e-01
    endloop
  endfacet
  facet normal 4.275554e-01 9.039891e-01 -0.000000e+00
    outer loop
      vertex 1.885587e-02 3.527685e-02 0.000000e+00
      vertex 1.530734e-02 3.695518e-02 0.000000e+00
      vertex 1.885587e-02 3.527685e-02 1.350000e-01
    endloop
  endfacet
  facet normal 4.275554e-01 9.039891e-01 -0.000000e+00
    outer loop
      vertex 1.530734e-02 3.695518e-02 0.000000e+00
      vertex 1.530734e-02 3.695518e-02 1.350000e-01
      vertex 1.885587e-02 3.527685e-02 1.350000e-01
    endloop
  endfacet
  facet normal 3.368902e-01 9.415440e-01 -0.000000e+00
    outer loop
      vertex 1.530734e-02 3.695518e-02 0.000000e+00
      vertex 1.161139e-02 3.827761e-02 0.000000e+00
      vertex 1.530734e-02 3.695518e-02 1.350000e-01
    endloop
  endfacet
  facet normal 3.368902e-01 9.415440e-01 -0.000000e+00
    outer loop
      vertex 1.161139e-02 3.827761e-02 0.000000e+00
      vertex 1.161139e-02 3.827761e-02 1.350000e-01
      vertex 1.530734e-02 3.695518e-02 1.350000e-01
    endloop
  endfacet
  facet normal 2.429801e-01 9.700313e-01 -0.000000e+00
    outer loop
      vertex 1.161139e-02 3.827761e-02 0.000000e+00
      vertex 7.803613e-03 3.923141e-02 0.000000e+00
      vertex 1.161139e-02 3.827761e-02 1.350000e-01
    endloop
  endfacet
  facet normal 2.429801e-01 9.700313e-01 -0.000000e+00
    outer loop
      vertex 7.803613e-03 3.923141e-02 0.000000e+00
      vertex 7.803613e-03 3.923141e-02 1.350000e-01
      vertex 1.161139e-02 3.827761e-02 1.350000e-01
    endloop
  endfacet
  facet normal 1.467306e-01 9.891766e-01 -0.000000e+00
    outer loop
      vertex 7.803613e-03 3.923141e-02 0.000000e+00
      vertex 3.920685e-03 3.980739e-02 0.000000e+00
      vertex 7.803613e-03 3.923141e-02 1.350000e-01
    endloop
  endfacet
  facet normal 1.467306e-01 9.891766e-01 -0.000000e+00
    outer loop
      vertex 3.920685e-03 3.980739e-02 0.000000e+00
      vertex 3.920685e-03 3.980739e-02 1.350000e-01
      vertex 7.803613e-03 3.923141e-02 1.350000e-01
    endloop
  endfacet
  facet normal 4.906711e-02 9.987955e-01 -0.000000e+00
    outer loop
      vertex 3.920685e-03 3.980739e-02 0.000000e+00
      vertex 2.449294e-18 4.000000e-02 0.000000e+00
      vertex 3.920685e-03 3.980739e-02 1.350000e-01
    endloop
  endfacet
  facet normal 4.906711e-02 9.987955e-01 -0.000000e+00
    outer loop
      vertex 2.449294e-18 4.000000e-02 0.000000e+00
      vertex 2.449294e-18 4.000000e-02 1.350000e-01
      vertex 3.920685e-03 3.980739e-02 1.350000e-01
    endloop
  endfacet
  facet normal -4.906711e-02 9.987955e-01 0.000000e+00
    outer loop
      vertex 2.449294e-18 4.000000e-02 0.000000e+00
      vertex -3.920685e-03 3.980739e-02 0.000000e+00
      vertex 2.449294e-18 4.000000e-02 1.350000e-01
    endloop
  endfacet
  facet normal -4.906711e-02 9.987955e-01 0.000000e+00
    outer loop
      vertex -3.920685e-03 3.980739e-02 0.000000e+00
      vertex -3.920685e-03 3.980739e-02 1.350000e-01
      vertex 2.449294e-18 4.000000e-02 1.350000e-01
    endloop
  endfacet
  facet normal -1.467306e-01 9.891766e-01 0.000000e+00
    outer loop
      vertex -3.920685e-03 3.980739e-02 0.000000e+00
      vertex -7.803613e-03 3.923141e-02 0.000000e+00
      vertex -3.920685e-03 3.980739e-02 1.350000e-01
    endloop
  endfacet
  facet normal -1.467306e-01 9.891766e-01 0.000000e+00
    outer loop
      vertex -7.803613e-03 3.923141e-02 0.000000e+00
      vertex -7.803613e-03 3.923141e-02 1.350000e-01
      vertex -3.920685e-03 3.980739e-02 1.350000e-01
    endloop
  endfacet
  facet normal -2.429801e-01 9.700313e-01 0.000000e+00
    outer loop
      vertex -7.803613e-03 3.923141e-02 0.000000e+00
      vertex -1.161139e-02 3.827761e-02 0.000000e+00
      vertex -7.803613e-03 3.923141e-02 1.350000e-01
    endloop
  endfacet
  facet normal -2.429801e-01 9.700313e-01 0.000000e+00
    outer loop
      vertex -1.161139e-02 3.827761e-02 0.000000e+00
      vertex -1.161139e-02 3.827761e-02 1.350000e-01
      vertex -7.803613e-03 3.923141e-02 1.350000e-01
    endloop
  endfacet
  facet normal -3.368902e-01 9.415440e-01 0.000000e+00
    outer loop
      vertex -1.161139e-02 3.827761e-02 0.000000e+00
      vertex -1.530734e-02 3.695518e-02 0.000000e+00
      vertex -1.161139e-02 3.827761e-02 1.350000e-01
    endloop
  endfacet
  facet normal -3.368902e-01 9.415440e-01 0.000000e+00
    outer loop
      vertex -1.530734e-02 3.695518e-02 0.000000e+00
      vertex -1.530734e-02 3.695518e-02 1.350000e-01
      vertex -1.161139e-02 3.827761e-02 1.350000e-01
    endloop
  endfacet
  facet normal -4.275554e-01 9.039891e-01 0.000000e+00
    outer loop
      vertex -1.530734e-02 3.695518e-02 0.000000e+00
      vertex -1.885587e-02 3.527685e-02 0.000000e+00
      vertex -1.530734e-02 3.695518e-02 1.350000e-01
    endloop
  endfacet
  facet normal -4.275554e-01 9.039891e-01 0.000000e+00
    outer loop
      vertex -1.885587e-02 3.527685e-02 0.000000e+00
      vertex -1.885587e-02 3.527685e-02 1.350000e-01
      vertex -1.530734e-02 3.695518e-02 1.350000e-01
    endloop
  endfacet
  facet normal -5.141024e-01 8.577288e-01 0.000000e+00
    outer loop
      vertex -1.885587e-02 3.527685e-02 0.000000e+00
      vertex -2.222281e-02 3.325878e-02 0.000000e+00
      vertex -1.885587e-02 3.527685e-02 1.350000e-01
    endloop
  endfacet
  facet normal -5.141024e-01 8.577288e-01 0.000000e+00
    outer loop
      vertex -2.222281e-02 3.325878e-02 0.000000e+00
      vertex -2.222281e-02 3.325878e-02 1.350000e-01
      vertex -1.885587e-02 3.527685e-02 1.350000e-01
    endloop
  endfacet
  facet normal -5.956994e-01 8.032075e-01 0.000000e+00
    outer loop
      vertex -2.222281e-02 3.325878e-02 0.000000e+00
      vertex -2.537573e-02 3.092042e-02 0.000000e+00
      vertex -2.222281e-02 3.325878e-02 1.350000e-01
    endloop
  endfacet
  facet normal -5.956994e-01 8.032075e-01 0.000000e+00
    outer loop
      vertex -2.537573e-02 3.092042e-02 0.000000e+00
      vertex -2.537573e-02 3.092042e-02 1.350000e-01
      vertex -2.222281e-02 3.325878e-02 1.350000e-01
    endloop
  endfacet
  facet normal -6.715592e-01 7.409509e-01 0.000000e+00
    outer loop
      vertex -2.537573e-02 3.092042e-02 0.000000e+00
      vertex -2.828427e-02 2.828427e-02 0.000000e+00
      vertex -2.537573e-02 3.092042e-02 1.350000e-01
    endloop
  endfacet
  facet normal -6.715592e-01 7.409509e-01 0.000000e+00
    outer loop
      vertex -2.828427e-02 2.828427e-02 0.000000e+00
      vertex -2.828427e-02 2.828427e-02 1.350000e-01
      vertex -2.537573e-02 3.092042e-02 1.350000e-01
    endloop
  endfacet
  facet normal -7.409509e-01 6.715592e-01 0.000000e+00
    outer loop
      vertex -2.828427e-02 2.828427e-02 0.000000e+00
      vertex -3.092042e-02 2.537573e-02 0.000000e+00
      vertex -2.828427e-02 2.828427e-02 1.350000e-01
    endloop
  endfacet
  facet normal -7.409509e-01 6.715592e-01 0.000000e+00
    outer loop
      vertex -3.092042e-02 2.537573e-02 0.000000e+00
      vertex -3.092042e-02 2.537573e-02 1.350000e-01
      vertex -2.828427e-02 2.828427e-02 1.350000e-01
    endloop
  endfacet
  facet normal -8.032075e-01 5.956994e-01 0.000000e+00
    outer loop
      vertex -3.092042e-02 2.537573e-02 0.000000e+00
      vertex -3.325878e-02 2.222281e-02 0.000000e+00
      vertex -3.092042e-02 2.537573e-02 1.350000e-01
    endloop
  endfacet
  facet normal -8.032075e-01 5.956994e-01 0.000000e+00
    outer loop
      vertex -3.325878e-02 2.222281e-02 0.000000e+00
      vertex -3.325878e-02 2.222281e-02 1.350000e-01
      vertex -3.092042e-02 2.537573e-02 1.350000e-01
    endloop
  endfacet
  facet normal -8.577288e-01 5.141024e-01 0.000000e+00
    outer loop
      vertex -3.325878e-02 2.222281e-02 0.000000e+00
      vertex -3.527685e-02 1.885587e-02 0.000000e+00
      vertex -3.325878e-02 2.222281e-02 1.350000e-01
    endloop
  endfacet
  facet normal -8.577288e-01 5.141024e-01 0.000000e+00
    outer loop
      vertex -3.527685e-02 1.885587e-02 0.000000e+00
      vertex -3.527685e-02 1.885587e-02 1.350000e-01
      vertex -3.325878e-02 2.222281e-02 1.350000e-01
    endloop
  endfacet
  facet normal -9.039891e-01 4.275554e-01 0.000000e+00
    outer loop
      vertex -3.527685e-02 1.885587e-02 0.000000e+00
      vertex -3.695518e-02 1.530734e-02 0.000000e+00
      vertex -3.527685e-02 1.885587e-02 1.350000e-01
    endloop
  endfacet
  facet normal -9.039891e-01 4.275554e-01 0.000000e+00
    outer loop
      vertex -3.695518e-02 1.530734e-02 0.000000e+00
      vertex -3.695518e-02 1.530734e-02 1.350000e-01
      vertex -3.527685e-02 1.885587e-02 1.350000e-01
    endloop
  endfacet
  facet normal -9.415440e-01 3.368902e-01 0.000000e+00
    outer loop
      vertex -3.695518e-02 1.530734e-02 0.000000e+00
      vertex -3.827761e-02 1.161139e-02 0.000000e+00
      vertex -3.695518e-02 1.530734e-02 1.350000e-01
    endloop
  endfacet
  facet normal -9.415440e-01 3.368902e-01 0.000000e+00
    outer loop
      vertex -3.827761e-02 1.161139e-02 0.000000e+00
      vertex -3.827761e-02 1.161139e-02 1.350000e-01
      vertex -3.695518e-02 1.530734e-02 1.350000e-01
    endloop
  endfacet
  facet normal -9.700313e-01 2.429801e-01 0.000000e+00
    outer loop
      vertex -3.827761e-02 1.161139e-02 0.000000e+00
      vertex -3.923141e-02 7.803613e-03 0.000000e+00
      vertex -3.827761e-02 1.161139e-02 1.350000e-01
    endloop
  endfacet
  facet normal -9.700313e-01 2.429801e-01 0.000000e+00
    outer loop
      vertex -3.923141e-02 7.803613e-03 0.000000e+00
      vertex -3.923141e-02 7.803613e-03 1.350000e-01
      vertex -3.827761e-02 1.161139e-02 1.350000e-01
    endloop
  endfacet
  facet normal -9.891766e-01 1.467306e-01 0.000000e+00
    outer loop
      vertex -3.923141e-02 7.803613e-03 0.000000e+00
      vertex -3.980739e-02 3.920685e-03 0.000000e+00
      vertex -3.923141e-02 7.803613e-03 1.350000e-01
    endloop
  endfacet
  facet normal -9.891766e-01 1.467306e-01 0.000000e+00
    outer loop
      vertex -3.980739e-02 3.920685e-03 0.000000e+00
      vertex -3.980739e-02 3.920685e-03 1.350000e-01
      vertex -3.923141e-02 7.803613e-03 1.350000e-01
    endloop
  endfacet
  facet normal -9.987955e-01 4.906711e-02 0.000000e+00
    outer loop
      vertex -3.980739e-02 3.920685e-03 0.000000e+00
      vertex -4.000000e-02 4.898587e-18 0.000000e+00
      vertex -3.980739e-02 3.920685e-03 1.350000e-01
    endloop
  endfacet
  facet normal -9.987955e-01 4.906711e-02 0.000000e+00
    outer loop
      vertex -4.000000e-02 4.898587e-18 0.000000e+00
      vertex -4.000000e-02 4.898587e-18 1.350000e-01
      vertex -3.980739e-02 3.920685e-03 1.350000e-01
    endloop
  endfacet
  facet normal -9.987955e-01 -4.906711e-02 0.000000e+00
    outer loop
      vertex -4.000000e-02 4.898587e-18 0.000000e+00
      vertex -3.980739e-02 -3.920685e-03 0.000000e+00
      vertex -4.000000e-02 4.898587e-18 1.350000e-01
    endloop
  endfacet
  facet normal -9.987955e-01 -4.906711e-02 0.000000e+00
    outer loop
      vertex -3.980739e-02 -3.920685e-03 0.000000e+00
      vertex -3.980739e-02 -3.920685e-03 1.350000e-01
      vertex -4.000000e-02 4.898587e-18 1.350000e-01
    endloop
  endfacet
  facet normal -9.891766e-01 -1.467306e-01 0.000000e+00
    outer loop
      vertex -3.980739e-02 -3.920685e-03 0.000000e+00
      vertex -3.923141e-02 -7.803613e-03 0.000000e+00
      vertex -3.980739e-02 -3.920685e-03 1.350000e-01
    endloop
  endfacet
  facet normal -9.891766e-01 -1.467306e-01 0.000000e+00
    outer loop
      vertex -3.923141e-02 -7.803613e-03 0.000000e+00
      vertex -3.923141e-02 -7.803613e-03 1.350000e-01
      vertex -3.980739e-02 -3.920685e-03 1.350000e-01
    endloop
  endfacet
  facet normal -9.700313e-01 -2.429801e-01 0.000000e+00
    outer loop
      vertex -3.923141e-02 -7.803613e-03 0.000000e+00
      vertex -3.827761e-02 -1.161139e-02 0.000000e+00
      vertex -3.923141e-02 -7.803613e-03 1.350000e-01
    endloop
  endfacet
  facet normal -9.700313e-01 -2.429801e-01 0.000000e+00
    outer loop
      vertex -3.827761e-02 -1.161139e-02 0.000000e+00
      vertex -3.827761e-02 -1.161139e-02 1.350000e-01
      vertex -3.923141e-02 -7.803613e-03 1.350000e-01
    endloop
  endfacet
  facet normal -9.415440e-01 -3.368902e-01 0.000000e+00
    outer loop
      vertex -3.827761e-02 -1.161139e-02 0.000000e+00
      vertex -3.695518e-02 -1.530734e-02 0.000000e+00
      vertex -3.827761e-02 -1.161139e-02 1.350000e-01
    endloop
  endfacet
  facet normal -9.415440e-01 -3.368902e-01 0.000000e+00
    outer loop
      vertex -3.695518e-02 -1.530734e-02 0.000000e+00
      vertex -3.695518e-02 -1.530734e-02 1.350000e-01
      vertex -3.827761e-02 -1.161139e-02 1.350000e-01
    endloop
  endfacet
  facet normal -9.039891e-01 -4.275554e-01 0.000000e+00
    outer loop
      vertex -3.695518e-02 -1.530734e-02 0.000000e+00
      vertex -3.527685e-02 -1.885587e-02 0.000000e+00
      vertex -3.695518e-02 -1.530734e-02 1.350000e-01
    endloop
  endfacet
  facet normal -9.039891e-01 -4.275554e-01 0.000000e+00
    outer loop
      vertex -3.527685e-02 -1.885587e-02 0.000000e+00
      vertex -3.527685e-02 -1.885587e-02 1.350000e-01
      vertex -3.695518e-02 -1.530734e-02 1.350000e-01
    endloop
  endfacet
  facet normal -8.577288e-01 -5.141024e-01 0.000000e+00
    outer loop
      vertex -3.527685e-02 -1.885587e-02 0.000000e+00
      vertex -3.325878e-02 -2.222281e-02 0.000000e+00
      vertex -3.527685e-02 -1.885587e-02 1.350000e-01
    endloop
  endfacet
  facet normal -8.577288e-01 -5.141024e-01 0.000000e+00
    outer loop
      vertex -3.325878e-02 -2.222281e-02 0.000000e+00
      vertex -3.325878e-02 -2.222281e-02 1.350000e-01
      vertex -3.527685e-02 -1.885587e-02 1.350000e-01
    endloop
  endfacet
  facet normal -8.032075e-01 -5.956994e-01 0.000000e+00
    outer loop
      vertex -3.325878e-02 -2.222281e-02 0.000000e+00
      vertex -3.092042e-02 -2.537573e-02 0.000000e+00
      vertex -3.325878e-02 -2.222281e-02 1.350000e-01
    endloop
  endfacet
  facet normal -8.032075e-01 -5.956994e-01 0.000000e+00
    outer loop
      vertex -3.092042e-02 -2.537573e-02 0.000000e+00
      vertex -3.092042e-02 -2.537573e-02 1.350000e-01
      vertex -3.325878e-02 -2.222281e-02 1.350000e-01
    endloop
  endfacet
  facet normal -7.409509e-01 -6.715592e-01 0.000000e+00
    outer loop
      vertex -3.092042e-02 -2.537573e-02 0.000000e+00
      vertex -2.828427e-02 -2.828427e-02 0.000000e+00
      vertex -3.092042e-02 -2.537573e-02 1.350000e-01
    endloop
  endfacet
  facet normal -7.409509e-01 -6.715592e-01 0.000000e+00
    outer loop
      vertex -2.828427e-02 -2.828427e-02 0.000000e+00
      vertex -2.828427e-02 -2.828427e-02 1.350000e-01
      vertex -3.092042e-02 -2.537573e-02 1.350000e-01
    endloop
  endfacet
  facet normal -6.715592e-01 -7.409509e-01 0.000000e+00
    outer loop
      vertex -2.828427e-02 -2.828427e-02 0.000000e+00
      vertex -2.537573e-02 -3.092042e-02 0.000000e+00
      vertex -2.828427e-02 -2.828427e-02 1.350000e-01
    endloop
  endfacet
  facet normal -6.715592e-01 -7.409509e-01 0.000000e+00
    outer loop
      vertex -2.537573e-02 -3.092042e-02 0.000000e+00
      vertex -2.537573e-02 -3.092042e-02 1.350000e-01
      vertex -2.828427e-02 -2.828427e-02 1.350000e-01
    endloop
  endfacet
  facet normal -5.956994e-01 -8.032075e-01 0.000000e+00
    outer loop
      vertex -2.537573e-02 -3.092042e-02 0.000000e+00
      vertex -2.222281e-02 -3.325878e-02 0.000000e+00
      vertex -2.537573e-02 -3.092042e-02 1.350000e-01
    endloop
  endfacet
  facet normal -5.956994e-01 -8.032075e-01 0.000000e+00
    outer loop
      vertex -2.222281e-02 -3.325878e-02 0.000000e+00
      vertex -2.222281e-02 -3.325878e-02 1.350000e-01
      vertex -2.537573e-02 -3.092042e-02 1.350000e-01
    endloop
  endfacet
  facet normal -5.141024e-01 -8.577288e-01 0.000000e+00
    outer loop
      vertex -2.222281e-02 -3.325878e-02 0.000000e+00
      vertex -1.885587e-02 -3.527685e-02 0.000000e+00
      vertex -2.222281e-02 -3.325878e-02 1.350000e-01
    endloop
  endfacet
  facet normal -5.141024e-01 -8.577288e-01 0.000000e+00
    outer loop
      vertex -1.885587e-02 -3.527685e-02 0.000000e+00
      vertex -1.885587e-02 -3.527685e-02 1.350000e-01
      vertex -2.222281e-02 -3.325878e-02 1.350000e-01
    endloop
  endfacet
  facet normal -4.275554e-01 -9.039891e-01 0.000000e+00
    outer loop
      vertex -1.885587e-02 -3.527685e-02 0.000000e+00
      vertex -1.530734e-02 -3.695518e-02 0.000000e+00
      vertex -1.885587e-02 -3.527685e-02 1.350000e-01
    endloop
  endfacet
  facet normal -4.275554e-01 -9.039891e-01 0.000000e+00
    outer loop
      vertex -1.530734e-02 -3.695518e-02 0.000000e+00
      vertex -1.530734e-02 -3.695518e-02 1.350000e-01
      vertex -1.885587e-02 -3.527685e-02 1.350000e-01
    endloop
  endfacet
  facet normal -3.368902e-01 -9.415440e-01 0.000000e+00
    outer loop
      vertex -1.530734e-02 -3.695518e-02 0.000000e+00
      vertex -1.161139e-02 -3.827761e-02 0.000000e+00
      vertex -1.530734e-02 -3.695518e-02 1.350000e-01
    endloop
  endfacet
  facet normal -3.368902e-01 -9.415440e-01 0.000000e+00
    outer loop
      vertex -1.161139e-02 -3.827761e-02 0.000000e+00
      vertex -1.161139e-02 -3.827761e-02 1.350000e-01
      vertex -1.530734e-02 -3.695518e-02 1.350000e-01
    endloop
  endfacet
  facet normal -2.429801e-01 -9.700313e-01 0.000000e+00
    outer loop
      vertex -1.161139e-02 -3.827761e-02 0.000000e+00
      vertex -7.803613e-03 -3.923141e-02 0.000000e+00
      vertex -1.161139e-02 -3.827761e-02 1.350000e-01
    endloop
  endfacet
  facet normal -2.429801e-01 -9.700313e-01 0.000000e+00
    outer loop
      vertex -7.803613e-03 -3.923141e-02 0.000000e+00
      vertex -7.803613e-03 -3.923141e-02 1.350000e-01
      vertex -1.161139e-02 -3.827761e-02 1.350000e-01
    endloop
  endfacet
  facet normal -1.467306e-01 -9.891766e-01 0.000000e+00
    outer loop
      vertex -7.803613e-03 -3.923141e-02 0.000000e+00
      vertex -3.920685e-03 -3.980739e-02 0.000000e+00
      vertex -7.803613e-03 -3.923141e-02 1.350000e-01
    endloop
  endfacet
  facet normal -1.467306e-01 -9.891766e-01 0.000000e+00
    outer loop
      vertex -3.920685e-03 -3.980739e-02 0.000000e+00
      vertex -3.920685e-03 -3.980739e-02 1.350000e-01
      vertex -7.803613e-03 -3.923141e-02 1.350000e-01
    endloop
  endfacet
  facet normal -4.906711e-02 -9.987955e-01 0.000000e+00
    outer loop
      vertex -3.920685e-03 -3.980739e-02 0.000000e+00
      vertex -7.347881e-18 -4.000000e-02 0.000000e+00
      vertex -3.920685e-03 -3.980739e-02 1.350000e-01
    endloop
  endfacet
  facet normal -4.906711e-02 -9.987955e-01 0.000000e+00
    outer loop
      vertex -7.347881e-18 -4.000000e-02 0.000000e+00
      vertex -7.347881e-18 -4.000000e-02 1.350000e-01
      vertex -3.920685e-03 -3.980739e-02 1.350000e-01
    endloop
  endfacet
  facet normal 4.906711e-02 -9.987955e-01 0.000000e+00
    outer loop
      vertex -7.347881e-18 -4.000000e-02 0.000000e+00
      vertex 3.920685e-03 -3.980739e-02 0.000000e+00
      vertex -7.347881e-18 -4.000000e-02 1.350000e-01
    endloop
  endfacet
  facet normal 4.906711e-02 -9.987955e-01 0.000000e+00
    outer loop
      vertex 3.920685e-03 -3.980739e-02 0.000000e+00
      vertex 3.920685e-03 -3.980739e-02 1.350000e-01
      vertex -7.347881e-18 -4.000000e-02 1.350000e-01
    endloop
  endfacet
  facet normal 1.467306e-01 -9.891766e-01 0.000000e+00
    outer loop
      vertex 3.920685e-03 -3.980739e-02 0.000000e+00
      vertex 7.803613e-03 -3.923141e-02 0.000000e+00
      vertex 3.920685e-03 -3.980739e-02 1.350000e-01
    endloop
  endfacet
  facet normal 1.467306e-01 -9.891766e-01 0.000000e+00
    outer loop
      vertex 7.803613e-03 -3.923141e-02 0.000000e+00
      vertex 7.803613e-03 -3.923141e-02 1.350000e-01
      vertex 3.920685e-03 -3.980739e-02 1.350000e-01
    endloop
  endfacet
  facet normal 2.429801e-01 -9.700313e-01 0.000000e+00
    outer loop
      vertex 7.803613e-03 -3.923141e-02 0.000000e+00
      vertex 1.161139e-02 -3.827761e-02 0.000000e+00
      vertex 7.803613e-03 -3.923141e-02 1.350000e-01
    endloop
  endfacet
  facet normal 2.429801e-01 -9.700313e-01 0.000000e+00
    outer loop
      vertex 1.161139e-02 -3.827761e-02 0.000000e+00
      vertex 1.161139e-02 -3.827761e-02 1.350000e-01
      vertex 7.803613e-03 -3.923141e-02 1.350000e-01
    endloop
  endfacet
  facet normal 3.368902e-01 -9.415440e-01 0.000000e+00
    outer loop
      vertex 1.161139e-02 -3.827761e-02 0.000000e+00
      vertex 1.530734e-02 -3.695518e-02 0.000000e+00
      vertex 1.161139e-02 -3.827761e-02 1.350000e-01
    endloop
  endfacet
  facet normal 3.368902e-01 -9.415440e-01 0.000000e+00
    outer loop
      vertex 1.530734e-02 -3.695518e-02 0.000000e+00
      vertex 1.530734e-02 -3.695518e-02 1.350000e-01
      vertex 1.161139e-02 -3.827761e-02 1.350000e-01
    endloop
  endfacet
  facet normal 4.275554e-01 -9.039891e-01 0.000000e+00
    outer loop
      vertex 1.530734e-02 -3.695518e-02 0.000000e+00
      vertex 1.885587e-02 -3.527685e-02 0.000000e+00
      vertex 1.530734e-02 -3.695518e-02 1.350000e-01
    endloop
  endfacet
  facet normal 4.275554e-01 -9.039891e-01 0.000000e+00
    outer loop
      vertex 1.885587e-02 -3.527685e-02 0.000000e+00
      vertex 1.885587e-02 -3.527685e-02 1.350000e-01
      vertex 1.530734e-02 -3.695518e-02 1.350000e-01
    endloop
  endfacet
  facet normal 5.141024e-01 -8.577288e-01 0.000000e+00
    outer loop
      vertex 1.885587e-02 -3.527685e-02 0.000000e+00
      vertex 2.222281e-02 -3.325878e-02 0.000000e+00
      vertex 1.885587e-02 -3.527685e-02 1.350000e-01
    endloop
  endfacet
  facet normal 5.141024e-01 -8.577288e-01 0.000000e+00
    outer loop
      vertex 2.222281e-02 -3.325878e-02 0.000000e+00
      vertex 2.222281e-02 -3.325878e-02 1.350000e-01
      vertex 1.885587e-02 -3.527685e-02 1.350000e-01
    endloop
  endfacet
  facet normal 5.956994e-01 -8.032075e-01 0.000000e+00
    outer loop
      vertex 2.222281e-02 -3.325878e-02 0.000000e+00
      vertex 2.537573e-02 -3.092042e-02 0.000000e+00
      vertex 2.222281e-02 -3.325878e-02 1.350000e-01
    endloop
  endfacet
  facet normal 5.956994e-01 -8.032075e-01 0.000000e+00
    outer loop
      vertex 2.537573e-02 -3.092042e-02 0.000000e+00
      vertex 2.537573e-02 -3.092042e-02 1.350000e-01
      vertex 2.222281e-02 -3.325878e-02 1.350000e-01
    endloop
  endfacet
  facet normal 6.715592e-01 -7.409509e-01 0.000000e+00
    outer loop
      vertex 2.537573e-02 -3.092042e-02 0.000000e+00
      vertex 2.828427e-02 -2.828427e-02 0.000000e+00
      vertex 2.537573e-02 -3.092042e-02 1.350000e-01
    endloop
  endfacet
  facet normal 6.715592e-01 -7.409509e-01 0.000000e+00
    outer loop
      vertex 2.828427e-02 -2.828427e-02 0.000000e+00
      vertex 2.828427e-02 -2.828427e-02 1.350000e-01
      vertex 2.537573e-02 -3.092042e-02 1.350000e-01
    endloop
  endfacet
  facet normal 7.409509e-01 -6.715592e-01 0.000000e+00
    outer loop
      vertex 2.828427e-02 -2.828427e-02 0.000000e+00
      vertex 3.092042e-02 -2.537573e-02 0.000000e+00
      vertex 2.828427e-02 -2.828427e-02 1.350000e-01
    endloop
  endfacet
  facet normal 7.409509e-01 -6.715592e-01 0.000000e+00
    outer loop
      vertex 3.092042e-02 -2.537573e-02 0.000000e+00
      vertex 3.092042e-02 -2.537573e-02 1.350000e-01
      vertex 2.828427e-02 -2.828427e-02 1.350000e-01
    endloop
  endfacet
  facet normal 8.032075e-01 -5.956994e-01 0.000000e+00
    outer loop
      vertex 3.092042e-02 -2.537573e-02 0.000000e+00
      vertex 3.325878e-02 -2.222281e-02 0.000000e+00
      vertex 3.092042e-02 -2.537573e-02 1.350000e-01
    endloop
  endfacet
  facet normal 8.032075e-01 -5.956994e-01 0.000000e+00
    outer loop
      vertex 3.325878e-02 -2.222281e-02 0.000000e+00
      vertex 3.325878e-02 -2.222281e-02 1.350000e-01
      vertex 3.092042e-02 -2.537573e-02 1.350000e-01
    endloop
  endfacet
  facet normal 8.577288e-01 -5.141024e-01 0.000000e+00
    outer loop
      vertex 3.325878e-02 -2.222281e-02 0.000000e+00
      vertex 3.527685e-02 -1.885587e-02 0.000000e+00
      vertex 3.325878e-02 -2.222281e-02 1.350000e-01
    endloop
  endfacet
  facet normal 8.577288e-01 -5.141024e-01 0.000000e+00
    outer loop
      vertex 3.527685e-02 -1.885587e-02 0.000000e+00
      vertex 3.527685e-02 -1.885587e-02 1.350000e-01
      vertex 3.325878e-02 -2.222281e-02 1.350000e-01
    endloop
  endfacet
  facet normal 9.039891e-01 -4.275554e-01 0.000000e+00
    outer loop
      vertex 3.527685e-02 -1.885587e-02 0.000000e+00
      vertex 3.695518e-02 -1.530734e-02 0.000000e+00
      vertex 3.527685e-02 -1.885587e-02 1.350000e-01
    endloop
  endfacet
  facet normal 9.039891e-01 -4.275554e-01 0.000000e+00
    outer loop
      vertex 3.695518e-02 -1.530734e-02 0.000000e+00
      vertex 3.695518e-02 -1.530734e-02 1.350000e-01
      vertex 3.527685e-02 -1.885587e-02 1.350000e-01
    endloop
  endfacet
  facet normal 9.415440e-01 -3.368902e-01 0.000000e+00
    outer loop
      vertex 3.695518e-02 -1.530734e-02 0.000000e+00
      vertex 3.827761e-02 -1.161139e-02 0.000000e+00
      vertex 3.695518e-02 -1.530734e-02 1.350000e-01
    endloop
  endfacet
  facet normal 9.415440e-01 -3.368902e-01 0.000000e+00
    outer loop
      vertex 3.827761e-02 -1.161139e-02 0.000000e+00
      vertex 3.827761e-02 -1.161139e-02 1.350000e-01
      vertex 3.695518e-02 -1.530734e-02 1.350000e-01
    endloop
  endfacet
  facet normal 9.700313e-01 -2.429801e-01 0.000000e+00
    outer loop
      vertex 3.827761e-02 -1.161139e-02 0.000000e+00
      vertex 3.923141e-02 -7.803613e-03 0.000000e+00
      vertex 3.827761e-02 -1.161139e-02 1.350000e-01
    endloop
  endfacet
  facet normal 9.700313e-01 -2.429801e-01 0.000000e+00
    outer loop
      vertex 3.923141e-02 -7.803613e-03 0.000000e+00
      vertex 3.923141e-02 -7.803613e-03 1.350000e-01
      vertex 3.827761e-02 -1.161139e-02 1.350000e-01
    endloop
  endfacet
  facet normal 9.891766e-01 -1.467306e-01 0.000000e+00
    outer loop
      vertex 3.923141e-02 -7.803613e-03 0.000000e+00
      vertex 3.980739e-02 -3.920685e-03 0.000000e+00
      vertex 3.923141e-02 -7.803613e-03 1.350000e-01
    endloop
  endfacet
  facet normal 9.891766e-01 -1.467306e-01 0.000000e+00
    outer loop
      vertex 3.980739e-02 -3.920685e-03 0.000000e+00
      vertex 3.980739e-02 -3.920685e-03 1.350000e-01
      vertex 3.923141e-02 -7.803613e-03 1.350000e-01
    endloop
  endfacet
  facet normal 9.987955e-01 -4.906711e-02 0.000000e+00
    outer loop
      vertex 3.980739e-02 -3.920685e-03 0.000000e+00
      vertex 4.000000e-02 0.000000e+00 0.000000e+00
      vertex 3.980739e-02 -3.920685e-03 1.350000e-01
    endloop
  endfacet
  facet normal 9.987955e-01 -4.906711e-02 0.000000e+00
    outer loop
      vertex 4.000000e-02 0.000000e+00 0.000000e+00
      vertex 4.000000e-02 0.000000e+00 1.350000e-01
      vertex 3.980739e-02 -3.920685e-03 1.350000e-01
    endloop
  endfacet
endsolid cylinder
