solid exhaustManifoldLeft
  facet normal 0.000000e+00 0.000000e+00 1.000000e+00
    outer loop
      vertex -6.000000e-02 -1.200000e-01 0.000000e+00
      vertex 6.000000e-02 -1.200000e-01 0.000000e+00
      vertex 6.000000e-02 -4.000000e-02 0.000000e+00
    endloop
  endfacet
  facet normal 0.000000e+00 0.000000e+00 1.000000e+00
    outer loop
      vertex -6.000000e-02 -1.200000e-01 0.000000e+00
      vertex 6.000000e-02 -4.000000e-02 0.000000e+00
      vertex -6.000000e-02 -4.000000e-02 0.000000e+00
    endloop
  endfacet
  facet normal 0.000000e+00 0.000000e+00 -1.000000e+00
    outer loop
      vertex -6.000000e-02 -1.200000e-01 4.000000e-02
      vertex 6.000000e-02 -4.000000e-02 4.000000e-02
      vertex 6.000000e-02 -1.200000e-01 4.000000e-02
    endloop
  endfacet
  facet normal 0.000000e+00 0.000000e+00 -1.000000e+00
    outer loop
      vertex -6.000000e-02 -1.200000e-01 4.000000e-02
      vertex -6.000000e-02 -4.000000e-02 4.000000e-02
      vertex 6.000000e-02 -4.000000e-02 4.000000e-02
    endloop
  endfacet
  facet normal 0.000000e+00 1.000000e+00 0.000000e+00
    outer loop
      vertex -6.000000e-02 -1.200000e-01 0.000000e+00
      vertex -6.000000e-02 -1.200000e-01 4.000000e-02
      vertex 6.000000e-02 -1.200000e-01 4.000000e-02
    endloop
  endfacet
  facet normal 0.000000e+00 1.000000e+00 0.000000e+00
    outer loop
      vertex -6.000000e-02 -1.200000e-01 0.000000e+00
      vertex 6.000000e-02 -1.200000e-01 4.000000e-02
      vertex 6.000000e-02 -1.200000e-01 0.000000e+00
    endloop
  endfacet
  facet normal 0.000000e+00 -1.000000e+00 0.000000e+00
    outer loop
      vertex 6.000000e-02 -4.000000e-02 0.000000e+00
      vertex 6.000000e-02 -4.000000e-02 4.000000e-02
      vertex -6.000000e-02 -4.000000e-02 4.000000e-02
    endloop
  endfacet
  facet normal 0.000000e+00 -1.000000e+00 0.000000e+00
    outer loop
      vertex 6.000000e-02 -4.000000e-02 0.000000e+00
      vertex -6.000000e-02 -4.000000e-02 4.000000e-02
      vertex -6.000000e-02 -4.000000e-02 0.000000e+00
    endloop
  endfacet
  facet normal 1.000000e+00 0.000000e+00 0.000000e+00
    outer loop
      vertex -6.000000e-02 -1.200000e-01 0.000000e+00
      vertex -6.000000e-02 -4.000000e-02 0.000000e+00
      vertex -6.000000e-02 -4.000000e-02 4.000000e-02
    endloop
  endfacet
  facet normal 1.000000e+00 0.000000e+00 0.000000e+00
    outer loop
      vertex -6.000000e-02 -1.200000e-01 0.000000e+00
      vertex -6.000000e-02 -4.000000e-02 4.000000e-02
      vertex -6.000000e-02 -1.200000e-01 4.000000e-02
    endloop
  endfacet
  facet normal -1.000000e+00 0.000000e+00 0.000000e+00
    outer loop
      vertex 6.000000e-02 -1.200000e-01 0.000000e+00
      vertex 6.000000e-02 -1.200000e-01 4.000000e-02
      vertex 6.000000e-02 -4.000000e-02 4.000000e-02
    endloop
  endfacet
  facet normal -1.000000e+00 0.000000e+00 0.000000e+00
    outer loop
      vertex 6.000000e-02 -1.200000e-01 0.000000e+00
      vertex 6.000000e-02 -4.000000e-02 4.000000e-02
      vertex 6.000000e-02 -4.000000e-02 0.000000e+00
    endloop
  endfacet
endsolid exhaustManifoldLeft
