solid exhaustValveRightInterface
  facet normal 9.987954e-01 4.906797e-02 -0.000000e+00
    outer loop
      vertex 4.850000e-02 0.000000e+00 9.500000e-02
      vertex 4.826646e-02 4.753831e-03 9.500000e-02
      vertex 4.850000e-02 0.000000e+00 1.350000e-01
    endloop
  endfacet
  facet normal 9.987954e-01 4.906797e-02 -0.000000e+00
    outer loop
      vertex 4.826646e-02 4.753831e-03 9.500000e-02
      vertex 4.826646e-02 4.753831e-03 1.350000e-01
      vertex 4.850000e-02 0.000000e+00 1.350000e-01
    endloop
  endfacet
  facet normal 9.891766e-01 1.467304e-01 -0.000000e+00
    outer loop
      vertex 4.826646e-02 4.753831e-03 9.500000e-02
      vertex 4.756809e-02 9.461881e-03 9.500000e-02
      vertex 4.826646e-02 4.753831e-03 1.350000e-01
    endloop
  endfacet
  facet normal 9.891766e-01 1.467304e-01 -0.000000e+00
    outer loop
      vertex 4.756809e-02 9.461881e-03 9.500000e-02
      vertex 4.756809e-02 9.461881e-03 1.350000e-01
      vertex 4.826646e-02 4.753831e-03 1.350000e-01
    endloop
  endfacet
  facet normal 9.700313e-01 2.429800e-01 -0.000000e+00
    outer loop
      vertex 4.756809e-02 9.461881e-03 9.500000e-02
      vertex 4.641161e-02 1.407881e-02 9.500000e-02
      vertex 4.756809e-02 9.461881e-03 1.350000e-01
    endloop
  endfacet
  facet normal 9.700313e-01 2.429800e-01 -0.000000e+00
    outer loop
      vertex 4.641161e-02 1.407881e-02 9.500000e-02
      vertex 4.641161e-02 1.407881e-02 1.350000e-01
      vertex 4.756809e-02 9.461881e-03 1.350000e-01
    endloop
  endfacet
  facet normal 9.415439e-01 3.368901e-01 -0.000000e+00
    outer loop
      vertex 4.641161e-02 1.407881e-02 9.500000e-02
      vertex 4.480816e-02 1.856015e-02 9.500000e-02
      vertex 4.641161e-02 1.407881e-02 1.350000e-01
    endloop
  endfacet
  facet normal 9.415439e-01 3.368901e-01 -0.000000e+00
    outer loop
      vertex 4.480816e-02 1.856015e-02 9.500000e-02
      vertex 4.480816e-02 1.856015e-02 1.350000e-01
      vertex 4.641161e-02 1.407881e-02 1.350000e-01
    endloop
  endfacet
  facet normal 9.039892e-01 4.275553e-01 -0.000000e+00
    outer loop
      vertex 4.480816e-02 1.856015e-02 9.500000e-02
      vertex 4.277318e-02 2.286274e-02 9.500000e-02
      vertex 4.480816e-02 1.856015e-02 1.350000e-01
    endloop
  endfacet
  facet normal 9.039892e-01 4.275553e-01 -0.000000e+00
    outer loop
      vertex 4.277318e-02 2.286274e-02 9.500000e-02
      vertex 4.277318e-02 2.286274e-02 1.350000e-01
      vertex 4.480816e-02 1.856015e-02 1.350000e-01
    endloop
  endfacet
  facet normal 8.577287e-01 5.141026e-01 -0.000000e+00
    outer loop
      vertex 4.277318e-02 2.286274e-02 9.500000e-02
      vertex 4.032627e-02 2.694516e-02 9.500000e-02
      vertex 4.277318e-02 2.286274e-02 1.350000e-01
    endloop
  endfacet
  facet normal 8.577287e-01 5.141026e-01 -0.000000e+00
    outer loop
      vertex 4.032627e-02 2.694516e-02 9.500000e-02
      vertex 4.032627e-02 2.694516e-02 1.350000e-01
      vertex 4.277318e-02 2.286274e-02 1.350000e-01
    endloop
  endfacet
  facet normal 8.032078e-01 5.956990e-01 -0.000000e+00
    outer loop
      vertex 4.032627e-02 2.694516e-02 9.500000e-02
      vertex 3.749101e-02 3.076807e-02 9.500000e-02
      vertex 4.032627e-02 2.694516e-02 1.350000e-01
    endloop
  endfacet
  facet normal 8.032078e-01 5.956990e-01 -0.000000e+00
    outer loop
      vertex 3.749101e-02 3.076807e-02 9.500000e-02
      vertex 3.749101e-02 3.076807e-02 1.350000e-01
      vertex 4.032627e-02 2.694516e-02 1.350000e-01
    endloop
  endfacet
  facet normal 7.409512e-01 6.715589e-01 -0.000000e+00
    outer loop
      vertex 3.749101e-02 3.076807e-02 9.500000e-02
      vertex 3.429468e-02 3.429468e-02 9.500000e-02
      vertex 3.749101e-02 3.076807e-02 1.350000e-01
    endloop
  endfacet
  facet normal 7.409512e-01 6.715589e-01 -0.000000e+00
    outer loop
      vertex 3.429468e-02 3.429468e-02 9.500000e-02
      vertex 3.429468e-02 3.429468e-02 1.350000e-01
      vertex 3.749101e-02 3.076807e-02 1.350000e-01
    endloop
  endfacet
  facet normal 6.715589e-01 7.409512e-01 -0.000000e+00
    outer loop
      vertex 3.429468e-02 3.429468e-02 9.500000e-02
      vertex 3.076807e-02 3.749101e-02 9.500000e-02
      vertex 3.429468e-02 3.429468e-02 1.350000e-01
    endloop
  endfacet
  facet normal 6.715589e-01 7.409512e-01 -0.000000e+00
    outer loop
      vertex 3.076807e-02 3.749101e-02 9.500000e-02
      vertex 3.076807e-02 3.749101e-02 1.350000e-01
      vertex 3.429468e-02 3.429468e-02 1.350000e-01
    endloop
  endfacet
  facet normal 5.956990e-01 8.032078e-01 -0.000000e+00
    outer loop
      vertex 3.076807e-02 3.749101e-02 9.500000e-02
      vertex 2.694516e-02 4.032627e-02 9.500000e-02
      vertex 3.076807e-02 3.749101e-02 1.350000e-01
    endloop
  endfacet
  facet normal 5.956990e-01 8.032078e-01 -0.000000e+00
    outer loop
      vertex 2.694516e-02 4.032627e-02 9.500000e-02
      vertex 2.694516e-02 4.032627e-02 1.350000e-01
      vertex 3.076807e-02 3.749101e-02 1.350000e-01
    endloop
  endfacet
  facet normal 5.141026e-01 8.577287e-01 -0.000000e+00
    outer loop
      vertex 2.694516e-02 4.032627e-02 9.500000e-02
      vertex 2.286274e-02 4.277318e-02 9.500000e-02
      vertex 2.694516e-02 4.032627e-02 1.350000e-01
    endloop
  endfacet
  facet normal 5.141026e-01 8.577287e-01 -0.000000e+00
    outer loop
      vertex 2.286274e-02 4.277318e-02 9.500000e-02
      vertex 2.286274e-02 4.277318e-02 1.350000e-01
      vertex 2.694516e-02 4.032627e-02 1.350000e-01
    endloop
  endfacet
  facet normal 4.275553e-01 9.039892e-01 -0.000000e+00
    outer loop
      vertex 2.286274e-02 4.277318e-02 9.500000e-02
      vertex 1.856015e-02 4.480816e-02 9.500000e-02
      vertex 2.286274e-02 4.277318e-02 1.350000e-01
    endloop
  endfacet
  facet normal 4.275553e-01 9.039892e-01 -0.000000e+00
    outer loop
      vertex 1.856015e-02 4.480816e-02 9.500000e-02
      vertex 1.856015e-02 4.480816e-02 1.350000e-01
      vertex 2.286274e-02 4.277318e-02 1.350000e-01
    endloop
  endfacet
  facet normal 3.368901e-01 9.415439e-01 -0.000000e+00
    outer loop
      vertex 1.856015e-02 4.480816e-02 9.500000e-02
      vertex 1.407881e-02 4.641161e-02 9.500000e-02
      vertex 1.856015e-02 4.480816e-02 1.350000e-01
    endloop
  endfacet
  facet normal 3.368901e-01 9.415439e-01 -0.000000e+00
    outer loop
      vertex 1.407881e-02 4.641161e-02 9.500000e-02
      vertex 1.407881e-02 4.641161e-02 1.350000e-01
      vertex 1.856015e-02 4.480816e-02 1.350000e-01
    endloop
  endfacet
  facet normal 2.429800e-01 9.700313e-01 -0.000000e+00
    outer loop
      vertex 1.407881e-02 4.641161e-02 9.500000e-02
      vertex 9.461881e-03 4.756809e-02 9.500000e-02
      vertex 1.407881e-02 4.641161e-02 1.350000e-01
    endloop
  endfacet
  facet normal 2.429800e-01 9.700313e-01 -0.000000e+00
    outer loop
      vertex 9.461881e-03 4.756809e-02 9.500000e-02
      vertex 9.461881e-03 4.756809e-02 1.350000e-01
      vertex 1.407881e-02 4.641161e-02 1.350000e-01
    endloop
  endfacet
  facet normal 1.467304e-01 9.891766e-01 -0.000000e+00
    outer loop
      vertex 9.461881e-03 4.756809e-02 9.500000e-02
      vertex 4.753831e-03 4.826646e-02 9.500000e-02
      vertex 9.461881e-03 4.756809e-02 1.350000e-01
    endloop
  endfacet
  facet normal 1.467304e-01 9.891766e-01 -0.000000e+00
    outer loop
      vertex 4.753831e-03 4.826646e-02 9.500000e-02
      vertex 4.753831e-03 4.826646e-02 1.350000e-01
      vertex 9.461881e-03 4.756809e-02 1.350000e-01
    endloop
  endfacet
  facet normal 4.906797e-02 9.987954e-01 -0.000000e+00
    outer loop
      vertex 4.753831e-03 4.826646e-02 9.500000e-02
      vertex 2.969768e-18 4.850000e-02 9.500000e-02
      vertex 4.753831e-03 4.826646e-02 1.350000e-01
    endloop
  endfacet
  facet normal 4.906797e-02 9.987954e-01 -0.000000e+00
    outer loop
      vertex 2.969768e-18 4.850000e-02 9.500000e-02
      vertex 2.969768e-18 4.850000e-02 1.350000e-01
      vertex 4.753831e-03 4.826646e-02 1.350000e-01
    endloop
  endfacet
  facet normal -4.906797e-02 9.987954e-01 0.000000e+00
    outer loop
      vertex 2.969768e-18 4.850000e-02 9.500000e-02
      vertex -4.753831e-03 4.826646e-02 9.500000e-02
      vertex 2.969768e-18 4.850000e-02 1.350000e-01
    endloop
  endfacet
  facet normal -4.906797e-02 9.987954e-01 0.000000e+00
    outer loop
      vertex -4.753831e-03 4.826646e-02 9.500000e-02
      vertex -4.753831e-03 4.826646e-02 1.350000e-01
      vertex 2.969768e-18 4.850000e-02 1.350000e-01
    endloop
  endfacet
  facet normal -1.467304e-01 9.891766e-01 0.000000e+00
    outer loop
      vertex -4.753831e-03 4.826646e-02 9.500000e-02
      vertex -9.461881e-03 4.756809e-02 9.500000e-02
      vertex -4.753831e-03 4.826646e-02 1.350000e-01
    endloop
  endfacet
  facet normal -1.467304e-01 9.891766e-01 0.000000e+00
    outer loop
      vertex -9.461881e-03 4.756809e-02 9.500000e-02
      vertex -9.461881e-03 4.756809e-02 1.350000e-01
      vertex -4.753831e-03 4.826646e-02 1.350000e-01
    endloop
  endfacet
  facet normal -2.429800e-01 9.700313e-01 0.000000e+00
    outer loop
      vertex -9.461881e-03 4.756809e-02 9.500000e-02
      vertex -1.407881e-02 4.641161e-02 9.500000e-02
      vertex -9.461881e-03 4.756809e-02 1.350000e-01
    endloop
  endfacet
  facet normal -2.429800e-01 9.700313e-01 0.000000e+00
    outer loop
      vertex -1.407881e-02 4.641161e-02 9.500000e-02
      vertex -1.407881e-02 4.641161e-02 1.350000e-01
      vertex -9.461881e-03 4.756809e-02 1.350000e-01
    endloop
  endfacet
  facet normal -3.368901e-01 9.415439e-01 0.000000e+00
    outer loop
      vertex -1.407881e-02 4.641161e-02 9.500000e-02
      vertex -1.856015e-02 4.480816e-02 9.500000e-02
      vertex -1.407881e-02 4.641161e-02 1.350000e-01
    endloop
  endfacet
  facet normal -3.368901e-01 9.415439e-01 0.000000e+00
    outer loop
      vertex -1.856015e-02 4.480816e-02 9.500000e-02
      vertex -1.856015e-02 4.480816e-02 1.350000e-01
      vertex -1.407881e-02 4.641161e-02 1.350000e-01
    endloop
  endfacet
  facet normal -4.275553e-01 9.039892e-01 0.000000e+00
    outer loop
      vertex -1.856015e-02 4.480816e-02 9.500000e-02
      vertex -2.286274e-02 4.277318e-02 9.500000e-02
      vertex -1.856015e-02 4.480816e-02 1.350000e-01
    endloop
  endfacet
  facet normal -4.275553e-01 9.039892e-01 0.000000e+00
    outer loop
      vertex -2.286274e-02 4.277318e-02 9.500000e-02
      vertex -2.286274e-02 4.277318e-02 1.350000e-01
      vertex -1.856015e-02 4.480816e-02 1.350000e-01
    endloop
  endfacet
  facet normal -5.141026e-01 8.577287e-01 0.000000e+00
    outer loop
      vertex -2.286274e-02 4.277318e-02 9.500000e-02
      vertex -2.694516e-02 4.032627e-02 9.500000e-02
      vertex -2.286274e-02 4.277318e-02 1.350000e-01
    endloop
  endfacet
  facet normal -5.141026e-01 8.577287e-01 0.000000e+00
    outer loop
      vertex -2.694516e-02 4.032627e-02 9.500000e-02
      vertex -2.694516e-02 4.032627e-02 1.350000e-01
      vertex -2.286274e-02 4.277318e-02 1.350000e-01
    endloop
  endfacet
  facet normal -5.956990e-01 8.032078e-01 0.000000e+00
    outer loop
      vertex -2.694516e-02 4.032627e-02 9.500000e-02
      vertex -3.076807e-02 3.749101e-02 9.500000e-02
      vertex -2.694516e-02 4.032627e-02 1.350000e-01
    endloop
  endfacet
  facet normal -5.956990e-01 8.032078e-01 0.000000e+00
    outer loop
      vertex -3.076807e-02 3.749101e-02 9.500000e-02
      vertex -3.076807e-02 3.749101e-02 1.350000e-01
      vertex -2.694516e-02 4.032627e-02 1.350000e-01
    endloop
  endfacet
  facet normal -6.715589e-01 7.409512e-01 0.000000e+00
    outer loop
      vertex -3.076807e-02 3.749101e-02 9.500000e-02
      vertex -3.429468e-02 3.429468e-02 9.500000e-02
      vertex -3.076807e-02 3.749101e-02 1.350000e-01
    endloop
  endfacet
  facet normal -6.715589e-01 7.409512e-01 0.000000e+00
    outer loop
      vertex -3.429468e-02 3.429468e-02 9.500000e-02
      vertex -3.429468e-02 3.429468e-02 1.350000e-01
      vertex -3.076807e-02 3.749101e-02 1.350000e-01
    endloop
  endfacet
  facet normal -7.409512e-01 6.715589e-01 0.000000e+00
    outer loop
      vertex -3.429468e-02 3.429468e-02 9.500000e-02
      vertex -3.749101e-02 3.076807e-02 9.500000e-02
      vertex -3.429468e-02 3.429468e-02 1.350000e-01
    endloop
  endfacet
  facet normal -7.409512e-01 6.715589e-01 0.000000e+00
    outer loop
      vertex -3.749101e-02 3.076807e-02 9.500000e-02
      vertex -3.749101e-02 3.076807e-02 1.350000e-01
      vertex -3.429468e-02 3.429468e-02 1.350000e-01
    endloop
  endfacet
  facet normal -8.032078e-01 5.956990e-01 0.000000e+00
    outer loop
      vertex -3.749101e-02 3.076807e-02 9.500000e-02
      vertex -4.032627e-02 2.694516e-02 9.500000e-02
      vertex -3.749101e-02 3.076807e-02 1.350000e-01
    endloop
  endfacet
  facet normal -8.032078e-01 5.956990e-01 0.000000e+00
    outer loop
      vertex -4.032627e-02 2.694516e-02 9.500000e-02
      vertex -4.032627e-02 2.694516e-02 1.350000e-01
      vertex -3.749101e-02 3.076807e-02 1.350000e-01
    endloop
  endfacet
  facet normal -8.577287e-01 5.141026e-01 0.000000e+00
    outer loop
      vertex -4.032627e-02 2.694516e-02 9.500000e-02
      vertex -4.277318e-02 2.286274e-02 9.500000e-02
      vertex -4.032627e-02 2.694516e-02 1.350000e-01
    endloop
  endfacet
  facet normal -8.577287e-01 5.141026e-01 0.000000e+00
    outer loop
      vertex -4.277318e-02 2.286274e-02 9.500000e-02
      vertex -4.277318e-02 2.286274e-02 1.350000e-01
      vertex -4.032627e-02 2.694516e-02 1.350000e-01
    endloop
  endfacet
  facet normal -9.039892e-01 4.275553e-01 0.000000e+00
    outer loop
      vertex -4.277318e-02 2.286274e-02 9.500000e-02
      vertex -4.480816e-02 1.856015e-02 9.500000e-02
      vertex -4.277318e-02 2.286274e-02 1.350000e-01
    endloop
  endfacet
  facet normal -9.039892e-01 4.275553e-01 0.000000e+00
    outer loop
      vertex -4.480816e-02 1.856015e-02 9.500000e-02
      vertex -4.480816e-02 1.856015e-02 1.350000e-01
      vertex -4.277318e-02 2.286274e-02 1.350000e-01
    endloop
  endfacet
  facet normal -9.415439e-01 3.368901e-01 0.000000e+00
    outer loop
      vertex -4.480816e-02 1.856015e-02 9.500000e-02
      vertex -4.641161e-02 1.407881e-02 9.500000e-02
      vertex -4.480816e-02 1.856015e-02 1.350000e-01
    endloop
  endfacet
  facet normal -9.415439e-01 3.368901e-01 0.000000e+00
    outer loop
      vertex -4.641161e-02 1.407881e-02 9.500000e-02
      vertex -4.641161e-02 1.407881e-02 1.350000e-01
      vertex -4.480816e-02 1.856015e-02 1.350000e-01
    endloop
  endfacet
  facet normal -9.700313e-01 2.429800e-01 0.000000e+00
    outer loop
      vertex -4.641161e-02 1.407881e-02 9.500000e-02
      vertex -4.756809e-02 9.461881e-03 9.500000e-02
      vertex -4.641161e-02 1.407881e-02 1.350000e-01
    endloop
  endfacet
  facet normal -9.700313e-01 2.429800e-01 0.000000e+00
    outer loop
      vertex -4.756809e-02 9.461881e-03 9.500000e-02
      vertex -4.756809e-02 9.461881e-03 1.350000e-01
      vertex -4.641161e-02 1.407881e-02 1.350000e-01
    endloop
  endfacet
  facet normal -9.891766e-01 1.467304e-01 0.000000e+00
    outer loop
      vertex -4.756809e-02 9.461881e-03 9.500000e-02
      vertex -4.826646e-02 4.753831e-03 9.500000e-02
      vertex -4.756809e-02 9.461881e-03 1.350000e-01
    endloop
  endfacet
  facet normal -9.891766e-01 1.467304e-01 0.000000e+00
    outer loop
      vertex -4.826646e-02 4.753831e-03 9.500000e-02
      vertex -4.826646e-02 4.753831e-03 1.350000e-01
      vertex -4.756809e-02 9.461881e-03 1.350000e-01
    endloop
  endfacet
  facet normal -9.987954e-01 4.906797e-02 0.000000e+00
    outer loop
      vertex -4.826646e-02 4.753831e-03 9.500000e-02
      vertex -4.850000e-02 5.939537e-18 9.500000e-02
      vertex -4.826646e-02 4.753831e-03 1.350000e-01
    endloop
  endfacet
  facet normal -9.987954e-01 4.906797e-02 0.000000e+00
    outer loop
      vertex -4.850000e-02 5.939537e-18 9.500000e-02
      vertex -4.850000e-02 5.939537e-18 1.350000e-01
      vertex -4.826646e-02 4.753831e-03 1.350000e-01
    endloop
  endfacet
  facet normal -9.987954e-01 -4.906797e-02 0.000000e+00
    outer loop
      vertex -4.850000e-02 5.939537e-18 9.500000e-02
      vertex -4.826646e-02 -4.753831e-03 9.500000e-02
      vertex -4.850000e-02 5.939537e-18 1.350000e-01
    endloop
  endfacet
  facet normal -9.987954e-01 -4.906797e-02 0.000000e+00
    outer loop
      vertex -4.826646e-02 -4.753831e-03 9.500000e-02
      vertex -4.826646e-02 -4.753831e-03 1.350000e-01
      vertex -4.850000e-02 5.939537e-18 1.350000e-01
    endloop
  endfacet
  facet normal -9.891766e-01 -1.467304e-01 0.000000e+00
    outer loop
      vertex -4.826646e-02 -4.753831e-03 9.500000e-02
      vertex -4.756809e-02 -9.461881e-03 9.500000e-02
      vertex -4.826646e-02 -4.753831e-03 1.350000e-01
    endloop
  endfacet
  facet normal -9.891766e-01 -1.467304e-01 0.000000e+00
    outer loop
      vertex -4.756809e-02 -9.461881e-03 9.500000e-02
      vertex -4.756809e-02 -9.461881e-03 1.350000e-01
      vertex -4.826646e-02 -4.753831e-03 1.350000e-01
    endloop
  endfacet
  facet normal -9.700313e-01 -2.429800e-01 0.000000e+00
    outer loop
      vertex -4.756809e-02 -9.461881e-03 9.500000e-02
      vertex -4.641161e-02 -1.407881e-02 9.500000e-02
      vertex -4.756809e-02 -9.461881e-03 1.350000e-01
    endloop
  endfacet
  facet normal -9.700313e-01 -2.429800e-01 0.000000e+00
    outer loop
      vertex -4.641161e-02 -1.407881e-02 9.500000e-02
      vertex -4.641161e-02 -1.407881e-02 1.350000e-01
      vertex -4.756809e-02 -9.461881e-03 1.350000e-01
    endloop
  endfacet
  facet normal -9.415439e-01 -3.368901e-01 0.000000e+00
    outer loop
      vertex -4.641161e-02 -1.407881e-02 9.500000e-02
      vertex -4.480816e-02 -1.856015e-02 9.500000e-02
      vertex -4.641161e-02 -1.407881e-02 1.350000e-01
    endloop
  endfacet
  facet normal -9.415439e-01 -3.368901e-01 0.000000e+00
    outer loop
      vertex -4.480816e-02 -1.856015e-02 9.500000e-02
      vertex -4.480816e-02 -1.856015e-02 1.350000e-01
      vertex -4.641161e-02 -1.407881e-02 1.350000e-01
    endloop
  endfacet
  facet normal -9.039892e-01 -4.275553e-01 0.000000e+00
    outer loop
      vertex -4.480816e-02 -1.856015e-02 9.500000e-02
      vertex -4.277318e-02 -2.286274e-02 9.500000e-02
      vertex -4.480816e-02 -1.856015e-02 1.350000e-01
    endloop
  endfacet
  facet normal -9.039892e-01 -4.275553e-01 0.000000e+00
    outer loop
      vertex -4.277318e-02 -2.286274e-02 9.500000e-02
      vertex -4.277318e-02 -2.286274e-02 1.350000e-01
      vertex -4.480816e-02 -1.856015e-02 1.350000e-01
    endloop
  endfacet
  facet normal -8.577287e-01 -5.141026e-01 0.000000e+00
    outer loop
      vertex -4.277318e-02 -2.286274e-02 9.500000e-02
      vertex -4.032627e-02 -2.694516e-02 9.500000e-02
      vertex -4.277318e-02 -2.286274e-02 1.350000e-01
    endloop
  endfacet
  facet normal -8.577287e-01 -5.141026e-01 0.000000e+00
    outer loop
      vertex -4.032627e-02 -2.694516e-02 9.500000e-02
      vertex -4.032627e-02 -2.694516e-02 1.350000e-01
      vertex -4.277318e-02 -2.286274e-02 1.350000e-01
    endloop
  endfacet
  facet normal -8.032078e-01 -5.956990e-01 0.000000e+00
    outer loop
      vertex -4.032627e-02 -2.694516e-02 9.500000e-02
      vertex -3.749101e-02 -3.076807e-02 9.500000e-02
      vertex -4.032627e-02 -2.694516e-02 1.350000e-01
    endloop
  endfacet
  facet normal -8.032078e-01 -5.956990e-01 0.000000e+00
    outer loop
      vertex -3.749101e-02 -3.076807e-02 9.500000e-02
      vertex -3.749101e-02 -3.076807e-02 1.350000e-01
      vertex -4.032627e-02 -2.694516e-02 1.350000e-01
    endloop
  endfacet
  facet normal -7.409512e-01 -6.715589e-01 0.000000e+00
    outer loop
      vertex -3.749101e-02 -3.076807e-02 9.500000e-02
      vertex -3.429468e-02 -3.429468e-02 9.500000e-02
      vertex -3.749101e-02 -3.076807e-02 1.350000e-01
    endloop
  endfacet
  facet normal -7.409512e-01 -6.715589e-01 0.000000e+00
    outer loop
      vertex -3.429468e-02 -3.429468e-02 9.500000e-02
      vertex -3.429468e-02 -3.429468e-02 1.350000e-01
      vertex -3.749101e-02 -3.076807e-02 1.350000e-01
    endloop
  endfacet
  facet normal -6.715589e-01 -7.409512e-01 0.000000e+00
    outer loop
      vertex -3.429468e-02 -3.429468e-02 9.500000e-02
      vertex -3.076807e-02 -3.749101e-02 9.500000e-02
      vertex -3.429468e-02 -3.429468e-02 1.350000e-01
    endloop
  endfacet
  facet normal -6.715589e-01 -7.409512e-01 0.000000e+00
    outer loop
      vertex -3.076807e-02 -3.749101e-02 9.500000e-02
      vertex -3.076807e-02 -3.749101e-02 1.350000e-01
      vertex -3.429468e-02 -3.429468e-02 1.350000e-01
    endloop
  endfacet
  facet normal -5.956990e-01 -8.032078e-01 0.000000e+00
    outer loop
      vertex -3.076807e-02 -3.749101e-02 9.500000e-02
      vertex -2.694516e-02 -4.032627e-02 9.500000e-02
      vertex -3.076807e-02 -3.749101e-02 1.350000e-01
    endloop
  endfacet
  facet normal -5.956990e-01 -8.032078e-01 0.000000e+00
    outer loop
      vertex -2.694516e-02 -4.032627e-02 9.500000e-02
      vertex -2.694516e-02 -4.032627e-02 1.350000e-01
      vertex -3.076807e-02 -3.749101e-02 1.350000e-01
    endloop
  endfacet
  facet normal -5.141026e-01 -8.577287e-01 0.000000e+00
    outer loop
      vertex -2.694516e-02 -4.032627e-02 9.500000e-02
      vertex -2.286274e-02 -4.277318e-02 9.500000e-02
      vertex -2.694516e-02 -4.032627e-02 1.350000e-01
    endloop
  endfacet
  facet normal -5.141026e-01 -8.577287e-01 0.000000e+00
    outer loop
      vertex -2.286274e-02 -4.277318e-02 9.500000e-02
      vertex -2.286274e-02 -4.277318e-02 1.350000e-01
      vertex -2.694516e-02 -4.032627e-02 1.350000e-01
    endloop
  endfacet
  facet normal -4.275553e-01 -9.039892e-01 0.000000e+00
    outer loop
      vertex -2.286274e-02 -4.277318e-02 9.500000e-02
      vertex -1.856015e-02 -4.480816e-02 9.500000e-02
      vertex -2.286274e-02 -4.277318e-02 1.350000e-01
    endloop
  endfacet
  facet normal -4.275553e-01 -9.039892e-01 0.000000e+00
    outer loop
      vertex -1.856015e-02 -4.480816e-02 9.500000e-02
      vertex -1.856015e-02 -4.480816e-02 1.350000e-01
      vertex -2.286274e-02 -4.277318e-02 1.350000e-01
    endloop
  endfacet
  facet normal -3.368901e-01 -9.415439e-01 0.000000e+00
    outer loop
      vertex -1.856015e-02 -4.480816e-02 9.500000e-02
      vertex -1.407881e-02 -4.641161e-02 9.500000e-02
      vertex -1.856015e-02 -4.480816e-02 1.350000e-01
    endloop
  endfacet
  facet normal -3.368901e-01 -9.415439e-01 0.000000e+00
    outer loop
      vertex -1.407881e-02 -4.641161e-02 9.500000e-02
      vertex -1.407881e-02 -4.641161e-02 1.350000e-01
      vertex -1.856015e-02 -4.480816e-02 1.350000e-01
    endloop
  endfacet
  facet normal -2.429800e-01 -9.700313e-01 0.000000e+00
    outer loop
      vertex -1.407881e-02 -4.641161e-02 9.500000e-02
      vertex -9.461881e-03 -4.756809e-02 9.500000e-02
      vertex -1.407881e-02 -4.641161e-02 1.350000e-01
    endloop
  endfacet
  facet normal -2.429800e-01 -9.700313e-01 0.000000e+00
    outer loop
      vertex -9.461881e-03 -4.756809e-02 9.500000e-02
      vertex -9.461881e-03 -4.756809e-02 1.350000e-01
      vertex -1.407881e-02 -4.641161e-02 1.350000e-01
    endloop
  endfacet
  facet normal -1.467304e-01 -9.891766e-01 0.000000e+00
    outer loop
      vertex -9.461881e-03 -4.756809e-02 9.500000e-02
      vertex -4.753831e-03 -4.826646e-02 9.500000e-02
      vertex -9.461881e-03 -4.756809e-02 1.350000e-01
    endloop
  endfacet
  facet normal -1.467304e-01 -9.891766e-01 0.000000e+00
    outer loop
      vertex -4.753831e-03 -4.826646e-02 9.500000e-02
      vertex -4.753831e-03 -4.826646e-02 1.350000e-01
      vertex -9.461881e-03 -4.756809e-02 1.350000e-01
    endloop
  endfacet
  facet normal -4.906797e-02 -9.987954e-01 0.000000e+00
    outer loop
      vertex -4.753831e-03 -4.826646e-02 9.500000e-02
      vertex -8.909305e-18 -4.850000e-02 9.500000e-02
      vertex -4.753831e-03 -4.826646e-02 1.350000e-01
    endloop
  endfacet
  facet normal -4.906797e-02 -9.987954e-01 0.000000e+00
    outer loop
      vertex -8.909305e-18 -4.850000e-02 9.500000e-02
      vertex -8.909305e-18 -4.850000e-02 1.350000e-01
      vertex -4.753831e-03 -4.826646e-02 1.350000e-01
    endloop
  endfacet
  facet normal 4.906797e-02 -9.987954e-01 0.000000e+00
    outer loop
      vertex -8.909305e-18 -4.850000e-02 9.500000e-02
      vertex 4.753831e-03 -4.826646e-02 9.500000e-02
      vertex -8.909305e-18 -4.850000e-02 1.350000e-01
    endloop
  endfacet
  facet normal 4.906797e-02 -9.987954e-01 0.000000e+00
    outer loop
      vertex 4.753831e-03 -4.826646e-02 9.500000e-02
      vertex 4.753831e-03 -4.826646e-02 1.350000e-01
      vertex -8.909305e-18 -4.850000e-02 1.350000e-01
    endloop
  endfacet
  facet normal 1.467304e-01 -9.891766e-01 0.000000e+00
    outer loop
      vertex 4.753831e-03 -4.826646e-02 9.500000e-02
      vertex 9.461881e-03 -4.756809e-02 9.500000e-02
      vertex 4.753831e-03 -4.826646e-02 1.350000e-01
    endloop
  endfacet
  facet normal 1.467304e-01 -9.891766e-01 0.000000e+00
    outer loop
      vertex 9.461881e-03 -4.756809e-02 9.500000e-02
      vertex 9.461881e-03 -4.756809e-02 1.350000e-01
      vertex 4.753831e-03 -4.826646e-02 1.350000e-01
    endloop
  endfacet
  facet normal 2.429800e-01 -9.700313e-01 0.000000e+00
    outer loop
      vertex 9.461881e-03 -4.756809e-02 9.500000e-02
      vertex 1.407881e-02 -4.641161e-02 9.500000e-02
      vertex 9.461881e-03 -4.756809e-02 1.350000e-01
    endloop
  endfacet
  facet normal 2.429800e-01 -9.700313e-01 0.000000e+00
    outer loop
      vertex 1.407881e-02 -4.641161e-02 9.500000e-02
      vertex 1.407881e-02 -4.641161e-02 1.350000e-01
      vertex 9.461881e-03 -4.756809e-02 1.350000e-01
    endloop
  endfacet
  facet normal 3.368901e-01 -9.415439e-01 0.000000e+00
    outer loop
      vertex 1.407881e-02 -4.641161e-02 9.500000e-02
      vertex 1.856015e-02 -4.480816e-02 9.500000e-02
      vertex 1.407881e-02 -4.641161e-02 1.350000e-01
    endloop
  endfacet
  facet normal 3.368901e-01 -9.415439e-01 0.000000e+00
    outer loop
      vertex 1.856015e-02 -4.480816e-02 9.500000e-02
      vertex 1.856015e-02 -4.480816e-02 1.350000e-01
      vertex 1.407881e-02 -4.641161e-02 1.350000e-01
    endloop
  endfacet
  facet normal 4.275553e-01 -9.039892e-01 0.000000e+00
    outer loop
      vertex 1.856015e-02 -4.480816e-02 9.500000e-02
      vertex 2.286274e-02 -4.277318e-02 9.500000e-02
      vertex 1.856015e-02 -4.480816e-02 1.350000e-01
    endloop
  endfacet
  facet normal 4.275553e-01 -9.039892e-01 0.000000e+00
    outer loop
      vertex 2.286274e-02 -4.277318e-02 9.500000e-02
      vertex 2.286274e-02 -4.277318e-02 1.350000e-01
      vertex 1.856015e-02 -4.480816e-02 1.350000e-01
    endloop
  endfacet
  facet normal 5.141026e-01 -8.577287e-01 0.000000e+00
    outer loop
      vertex 2.286274e-02 -4.277318e-02 9.500000e-02
      vertex 2.694516e-02 -4.032627e-02 9.500000e-02
      vertex 2.286274e-02 -4.277318e-02 1.350000e-01
    endloop
  endfacet
  facet normal 5.141026e-01 -8.577287e-01 0.000000e+00
    outer loop
      vertex 2.694516e-02 -4.032627e-02 9.500000e-02
      vertex 2.694516e-02 -4.032627e-02 1.350000e-01
      vertex 2.286274e-02 -4.277318e-02 1.350000e-01
    endloop
  endfacet
  facet normal 5.956990e-01 -8.032078e-01 0.000000e+00
    outer loop
      vertex 2.694516e-02 -4.032627e-02 9.500000e-02
      vertex 3.076807e-02 -3.749101e-02 9.500000e-02
      vertex 2.694516e-02 -4.032627e-02 1.350000e-01
    endloop
  endfacet
  facet normal 5.956990e-01 -8.032078e-01 0.000000e+00
    outer loop
      vertex 3.076807e-02 -3.749101e-02 9.500000e-02
      vertex 3.076807e-02 -3.749101e-02 1.350000e-01
      vertex 2.694516e-02 -4.032627e-02 1.350000e-01
    endloop
  endfacet
  facet normal 6.715589e-01 -7.409512e-01 0.000000e+00
    outer loop
      vertex 3.076807e-02 -3.749101e-02 9.500000e-02
      vertex 3.429468e-02 -3.429468e-02 9.500000e-02
      vertex 3.076807e-02 -3.749101e-02 1.350000e-01
    endloop
  endfacet
  facet normal 6.715589e-01 -7.409512e-01 0.000000e+00
    outer loop
      vertex 3.429468e-02 -3.429468e-02 9.500000e-02
      vertex 3.429468e-02 -3.429468e-02 1.350000e-01
      vertex 3.076807e-02 -3.749101e-02 1.350000e-01
    endloop
  endfacet
  facet normal 7.409512e-01 -6.715589e-01 0.000000e+00
    outer loop
      vertex 3.429468e-02 -3.429468e-02 9.500000e-02
      vertex 3.749101e-02 -3.076807e-02 9.500000e-02
      vertex 3.429468e-02 -3.429468e-02 1.350000e-01
    endloop
  endfacet
  facet normal 7.409512e-01 -6.715589e-01 0.000000e+00
    outer loop
      vertex 3.749101e-02 -3.076807e-02 9.500000e-02
      vertex 3.749101e-02 -3.076807e-02 1.350000e-01
      vertex 3.429468e-02 -3.429468e-02 1.350000e-01
    endloop
  endfacet
  facet normal 8.032078e-01 -5.956990e-01 0.000000e+00
    outer loop
      vertex 3.749101e-02 -3.076807e-02 9.500000e-02
      vertex 4.032627e-02 -2.694516e-02 9.500000e-02
      vertex 3.749101e-02 -3.076807e-02 1.350000e-01
    endloop
  endfacet
  facet normal 8.032078e-01 -5.956990e-01 0.000000e+00
    outer loop
      vertex 4.032627e-02 -2.694516e-02 9.500000e-02
      vertex 4.032627e-02 -2.694516e-02 1.350000e-01
      vertex 3.749101e-02 -3.076807e-02 1.350000e-01
    endloop
  endfacet
  facet normal 8.577287e-01 -5.141026e-01 0.000000e+00
    outer loop
      vertex 4.032627e-02 -2.694516e-02 9.500000e-02
      vertex 4.277318e-02 -2.286274e-02 9.500000e-02
      vertex 4.032627e-02 -2.694516e-02 1.350000e-01
    endloop
  endfacet
  facet normal 8.577287e-01 -5.141026e-01 0.000000e+00
    outer loop
      vertex 4.277318e-02 -2.286274e-02 9.500000e-02
      vertex 4.277318e-02 -2.286274e-02 1.350000e-01
      vertex 4.032627e-02 -2.694516e-02 1.350000e-01
    endloop
  endfacet
  facet normal 9.039892e-01 -4.275553e-01 0.000000e+00
    outer loop
      vertex 4.277318e-02 -2.286274e-02 9.500000e-02
      vertex 4.480816e-02 -1.856015e-02 9.500000e-02
      vertex 4.277318e-02 -2.286274e-02 1.350000e-01
    endloop
  endfacet
  facet normal 9.039892e-01 -4.275553e-01 0.000000e+00
    outer loop
      vertex 4.480816e-02 -1.856015e-02 9.500000e-02
      vertex 4.480816e-02 -1.856015e-02 1.350000e-01
      vertex 4.277318e-02 -2.286274e-02 1.350000e-01
    endloop
  endfacet
  facet normal 9.415439e-01 -3.368901e-01 0.000000e+00
    outer loop
      vertex 4.480816e-02 -1.856015e-02 9.500000e-02
      vertex 4.641161e-02 -1.407881e-02 9.500000e-02
      vertex 4.480816e-02 -1.856015e-02 1.350000e-01
    endloop
  endfacet
  facet normal 9.415439e-01 -3.368901e-01 0.000000e+00
    outer loop
      vertex 4.641161e-02 -1.407881e-02 9.500000e-02
      vertex 4.641161e-02 -1.407881e-02 1.350000e-01
      vertex 4.480816e-02 -1.856015e-02 1.350000e-01
    endloop
  endfacet
  facet normal 9.700313e-01 -2.429800e-01 0.000000e+00
    outer loop
      vertex 4.641161e-02 -1.407881e-02 9.500000e-02
      vertex 4.756809e-02 -9.461881e-03 9.500000e-02
      vertex 4.641161e-02 -1.407881e-02 1.350000e-01
    endloop
  endfacet
  facet normal 9.700313e-01 -2.429800e-01 0.000000e+00
    outer loop
      vertex 4.756809e-02 -9.461881e-03 9.500000e-02
      vertex 4.756809e-02 -9.461881e-03 1.350000e-01
      vertex 4.641161e-02 -1.407881e-02 1.350000e-01
    endloop
  endfacet
  facet normal 9.891766e-01 -1.467304e-01 0.000000e+00
    outer loop
      vertex 4.756809e-02 -9.461881e-03 9.500000e-02
      vertex 4.826646e-02 -4.753831e-03 9.500000e-02
      vertex 4.756809e-02 -9.461881e-03 1.350000e-01
    endloop
  endfacet
  facet normal 9.891766e-01 -1.467304e-01 0.000000e+00
    outer loop
      vertex 4.826646e-02 -4.753831e-03 9.500000e-02
      vertex 4.826646e-02 -4.753831e-03 1.350000e-01
      vertex 4.756809e-02 -9.461881e-03 1.350000e-01
    endloop
  endfacet
  facet normal 9.987954e-01 -4.906797e-02 0.000000e+00
    outer loop
      vertex 4.826646e-02 -4.753831e-03 9.500000e-02
      vertex 4.850000e-02 0.000000e+00 9.500000e-02
      vertex 4.826646e-02 -4.753831e-03 1.350000e-01
    endloop
  endfacet
  facet normal 9.987954e-01 -4.906797e-02 0.000000e+00
    outer loop
      vertex 4.850000e-02 0.000000e+00 9.500000e-02
      vertex 4.850000e-02 0.000000e+00 1.350000e-01
      vertex 4.826646e-02 -4.753831e-03 1.350000e-01
    endloop
  endfacet
  facet normal 0.000000e+00 0.000000e+00 -1.000000e+00
    outer loop
      vertex 0.000000e+00 0.000000e+00 9.500000e-02
      vertex 4.826646e-02 4.753831e-03 9.500000e-02
      vertex 4.850000e-02 0.000000e+00 9.500000e-02
    endloop
  endfacet
  facet normal 0.000000e+00 0.000000e+00 -1.000000e+00
    outer loop
      vertex 0.000000e+00 0.000000e+00 9.500000e-02
      vertex 4.756809e-02 9.461881e-03 9.500000e-02
      vertex 4.826646e-02 4.753831e-03 9.500000e-02
    endloop
  endfacet
  facet normal 0.000000e+00 0.000000e+00 -1.000000e+00
    outer loop
      vertex 0.000000e+00 0.000000e+00 9.500000e-02
      vertex 4.641161e-02 1.407881e-02 9.500000e-02
      vertex 4.756809e-02 9.461881e-03 9.500000e-02
    endloop
  endfacet
  facet normal 0.000000e+00 0.000000e+00 -1.000000e+00
    outer loop
      vertex 0.000000e+00 0.000000e+00 9.500000e-02
      vertex 4.480816e-02 1.856015e-02 9.500000e-02
      vertex 4.641161e-02 1.407881e-02 9.500000e-02
    endloop
  endfacet
  facet normal 0.000000e+00 0.000000e+00 -1.000000e+00
    outer loop
      vertex 0.000000e+00 0.000000e+00 9.500000e-02
      vertex 4.277318e-02 2.286274e-02 9.500000e-02
      vertex 4.480816e-02 1.856015e-02 9.500000e-02
    endloop
  endfacet
  facet normal 0.000000e+00 0.000000e+00 -1.000000e+00
    outer loop
      vertex 0.000000e+00 0.000000e+00 9.500000e-02
      vertex 4.032627e-02 2.694516e-02 9.500000e-02
      vertex 4.277318e-02 2.286274e-02 9.500000e-02
    endloop
  endfacet
  facet normal 0.000000e+00 0.000000e+00 -1.000000e+00
    outer loop
      vertex 0.000000e+00 0.000000e+00 9.500000e-02
      vertex 3.749101e-02 3.076807e-02 9.500000e-02
      vertex 4.032627e-02 2.694516e-02 9.500000e-02
    endloop
  endfacet
  facet normal 0.000000e+00 0.000000e+00 -1.000000e+00
    outer loop
      vertex 0.000000e+00 0.000000e+00 9.500000e-02
      vertex 3.429468e-02 3.429468e-02 9.500000e-02
      vertex 3.749101e-02 3.076807e-02 9.500000e-02
    endloop
  endfacet
  facet normal 0.000000e+00 0.000000e+00 -1.000000e+00
    outer loop
      vertex 0.000000e+00 0.000000e+00 9.500000e-02
      vertex 3.076807e-02 3.749101e-02 9.500000e-02
      vertex 3.429468e-02 3.429468e-02 9.500000e-02
    endloop
  endfacet
  facet normal 0.000000e+00 0.000000e+00 -1.000000e+00
    outer loop
      vertex 0.000000e+00 0.000000e+00 9.500000e-02
      vertex 2.694516e-02 4.032627e-02 9.500000e-02
      vertex 3.076807e-02 3.749101e-02 9.500000e-02
    endloop
  endfacet
  facet normal 0.000000e+00 0.000000e+00 -1.000000e+00
    outer loop
      vertex 0.000000e+00 0.000000e+00 9.500000e-02
      vertex 2.286274e-02 4.277318e-02 9.500000e-02
      vertex 2.694516e-02 4.032627e-02 9.500000e-02
    endloop
  endfacet
  facet normal 0.000000e+00 0.000000e+00 -1.000000e+00
    outer loop
      vertex 0.000000e+00 0.000000e+00 9.500000e-02
      vertex 1.856015e-02 4.480816e-02 9.500000e-02
      vertex 2.286274e-02 4.277318e-02 9.500000e-02
    endloop
  endfacet
  facet normal 0.000000e+00 0.000000e+00 -1.000000e+00
    outer loop
      vertex 0.000000e+00 0.000000e+00 9.500000e-02
      vertex 1.407881e-02 4.641161e-02 9.500000e-02
      vertex 1.856015e-02 4.480816e-02 9.500000e-02
    endloop
  endfacet
  facet normal 0.000000e+00 0.000000e+00 -1.000000e+00
    outer loop
      vertex 0.000000e+00 0.000000e+00 9.500000e-02
      vertex 9.461881e-03 4.756809e-02 9.500000e-02
      vertex 1.407881e-02 4.641161e-02 9.500000e-02
    endloop
  endfacet
  facet normal 0.000000e+00 0.000000e+00 -1.000000e+00
    outer loop
      vertex 0.000000e+00 0.000000e+00 9.500000e-02
      vertex 4.753831e-03 4.826646e-02 9.500000e-02
      vertex 9.461881e-03 4.756809e-02 9.500000e-02
    endloop
  endfacet
  facet normal 0.000000e+00 0.000000e+00 -1.000000e+00
    outer loop
      vertex 0.000000e+00 0.000000e+00 9.500000e-02
      vertex 2.969768e-18 4.850000e-02 9.500000e-02
      vertex 4.753831e-03 4.826646e-02 9.500000e-02
    endloop
  endfacet
  facet normal 0.000000e+00 0.000000e+00 -1.000000e+00
    outer loop
      vertex 0.000000e+00 0.000000e+00 9.500000e-02
      vertex -4.753831e-03 4.826646e-02 9.500000e-02
      vertex 2.969768e-18 4.850000e-02 9.500000e-02
    endloop
  endfacet
  facet normal 0.000000e+00 0.000000e+00 -1.000000e+00
    outer loop
      vertex 0.000000e+00 0.000000e+00 9.500000e-02
      vertex -9.461881e-03 4.756809e-02 9.500000e-02
      vertex -4.753831e-03 4.826646e-02 9.500000e-02
    endloop
  endfacet
  facet normal 0.000000e+00 0.000000e+00 -1.000000e+00
    outer loop
      vertex 0.000000e+00 0.000000e+00 9.500000e-02
      vertex -1.407881e-02 4.641161e-02 9.500000e-02
      vertex -9.461881e-03 4.756809e-02 9.500000e-02
    endloop
  endfacet
  facet normal 0.000000e+00 0.000000e+00 -1.000000e+00
    outer loop
      vertex 0.000000e+00 0.000000e+00 9.500000e-02
      vertex -1.856015e-02 4.480816e-02 9.500000e-02
      vertex -1.407881e-02 4.641161e-02 9.500000e-02
    endloop
  endfacet
  facet normal 0.000000e+00 0.000000e+00 -1.000000e+00
    outer loop
      vertex 0.000000e+00 0.000000e+00 9.500000e-02
      vertex -2.286274e-02 4.277318e-02 9.500000e-02
      vertex -1.856015e-02 4.480816e-02 9.500000e-02
    endloop
  endfacet
  facet normal 0.000000e+00 0.000000e+00 -1.000000e+00
    outer loop
      vertex 0.000000e+00 0.000000e+00 9.500000e-02
      vertex -2.694516e-02 4.032627e-02 9.500000e-02
      vertex -2.286274e-02 4.277318e-02 9.500000e-02
    endloop
  endfacet
  facet normal 0.000000e+00 0.000000e+00 -1.000000e+00
    outer loop
      vertex 0.000000e+00 0.000000e+00 9.500000e-02
      vertex -3.076807e-02 3.749101e-02 9.500000e-02
      vertex -2.694516e-02 4.032627e-02 9.500000e-02
    endloop
  endfacet
  facet normal 0.000000e+00 0.000000e+00 -1.000000e+00
    outer loop
      vertex 0.000000e+00 0.000000e+00 9.500000e-02
      vertex -3.429468e-02 3.429468e-02 9.500000e-02
      vertex -3.076807e-02 3.749101e-02 9.500000e-02
    endloop
  endfacet
  facet normal 0.000000e+00 0.000000e+00 -1.000000e+00
    outer loop
      vertex 0.000000e+00 0.000000e+00 9.500000e-02
      vertex -3.749101e-02 3.076807e-02 9.500000e-02
      vertex -3.429468e-02 3.429468e-02 9.500000e-02
    endloop
  endfacet
  facet normal 0.000000e+00 0.000000e+00 -1.000000e+00
    outer loop
      vertex 0.000000e+00 0.000000e+00 9.500000e-02
      vertex -4.032627e-02 2.694516e-02 9.500000e-02
      vertex -3.749101e-02 3.076807e-02 9.500000e-02
    endloop
  endfacet
  facet normal 0.000000e+00 0.000000e+00 -1.000000e+00
    outer loop
      vertex 0.000000e+00 0.000000e+00 9.500000e-02
      vertex -4.277318e-02 2.286274e-02 9.500000e-02
      vertex -4.032627e-02 2.694516e-02 9.500000e-02
    endloop
  endfacet
  facet normal 0.000000e+00 0.000000e+00 -1.000000e+00
    outer loop
      vertex 0.000000e+00 0.000000e+00 9.500000e-02
      vertex -4.480816e-02 1.856015e-02 9.500000e-02
      vertex -4.277318e-02 2.286274e-02 9.500000e-02
    endloop
  endfacet
  facet normal 0.000000e+00 0.000000e+00 -1.000000e+00
    outer loop
      vertex 0.000000e+00 0.000000e+00 9.500000e-02
      vertex -4.641161e-02 1.407881e-02 9.500000e-02
      vertex -4.480816e-02 1.856015e-02 9.500000e-02
    endloop
  endfacet
  facet normal 0.000000e+00 0.000000e+00 -1.000000e+00
    outer loop
      vertex 0.000000e+00 0.000000e+00 9.500000e-02
      vertex -4.756809e-02 9.461881e-03 9.500000e-02
      vertex -4.641161e-02 1.407881e-02 9.500000e-02
    endloop
  endfacet
  facet normal 0.000000e+00 0.000000e+00 -1.000000e+00
    outer loop
      vertex 0.000000e+00 0.000000e+00 9.500000e-02
      vertex -4.826646e-02 4.753831e-03 9.500000e-02
      vertex -4.756809e-02 9.461881e-03 9.500000e-02
    endloop
  endfacet
  facet normal 0.000000e+00 0.000000e+00 -1.000000e+00
    outer loop
      vertex 0.000000e+00 0.000000e+00 9.500000e-02
      vertex -4.850000e-02 5.939537e-18 9.500000e-02
      vertex -4.826646e-02 4.753831e-03 9.500000e-02
    endloop
  endfacet
  facet normal -0.000000e+00 0.000000e+00 -1.000000e+00
    outer loop
      vertex 0.000000e+00 0.000000e+00 9.500000e-02
      vertex -4.826646e-02 -4.753831e-03 9.500000e-02
      vertex -4.850000e-02 5.939537e-18 9.500000e-02
    endloop
  endfacet
  facet normal 0.000000e+00 0.000000e+00 -1.000000e+00
    outer loop
      vertex 0.000000e+00 0.000000e+00 9.500000e-02
      vertex -4.756809e-02 -9.461881e-03 9.500000e-02
      vertex -4.826646e-02 -4.753831e-03 9.500000e-02
    endloop
  endfacet
  facet normal 0.000000e+00 0.000000e+00 -1.000000e+00
    outer loop
      vertex 0.000000e+00 0.000000e+00 9.500000e-02
      vertex -4.641161e-02 -1.407881e-02 9.500000e-02
      vertex -4.756809e-02 -9.461881e-03 9.500000e-02
    endloop
  endfacet
  facet normal 0.000000e+00 0.000000e+00 -1.000000e+00
    outer loop
      vertex 0.000000e+00 0.000000e+00 9.500000e-02
      vertex -4.480816e-02 -1.856015e-02 9.500000e-02
      vertex -4.641161e-02 -1.407881e-02 9.500000e-02
    endloop
  endfacet
  facet normal 0.000000e+00 0.000000e+00 -1.000000e+00
    outer loop
      vertex 0.000000e+00 0.000000e+00 9.500000e-02
      vertex -4.277318e-02 -2.286274e-02 9.500000e-02
      vertex -4.480816e-02 -1.856015e-02 9.500000e-02
    endloop
  endfacet
  facet normal 0.000000e+00 0.000000e+00 -1.000000e+00
    outer loop
      vertex 0.000000e+00 0.000000e+00 9.500000e-02
      vertex -4.032627e-02 -2.694516e-02 9.500000e-02
      vertex -4.277318e-02 -2.286274e-02 9.500000e-02
    endloop
  endfacet
  facet normal 0.000000e+00 0.000000e+00 -1.000000e+00
    outer loop
      vertex 0.000000e+00 0.000000e+00 9.500000e-02
      vertex -3.749101e-02 -3.076807e-02 9.500000e-02
      vertex -4.032627e-02 -2.694516e-02 9.500000e-02
    endloop
  endfacet
  facet normal 0.000000e+00 0.000000e+00 -1.000000e+00
    outer loop
      vertex 0.000000e+00 0.000000e+00 9.500000e-02
      vertex -3.429468e-02 -3.429468e-02 9.500000e-02
      vertex -3.749101e-02 -3.076807e-02 9.500000e-02
    endloop
  endfacet
  facet normal 0.000000e+00 0.000000e+00 -1.000000e+00
    outer loop
      vertex 0.000000e+00 0.000000e+00 9.500000e-02
      vertex -3.076807e-02 -3.749101e-02 9.500000e-02
      vertex -3.429468e-02 -3.429468e-02 9.500000e-02
    endloop
  endfacet
  facet normal 0.000000e+00 0.000000e+00 -1.000000e+00
    outer loop
      vertex 0.000000e+00 0.000000e+00 9.500000e-02
      vertex -2.694516e-02 -4.032627e-02 9.500000e-02
      vertex -3.076807e-02 -3.749101e-02 9.500000e-02
    endloop
  endfacet
  facet normal 0.000000e+00 0.000000e+00 -1.000000e+00
    outer loop
      vertex 0.000000e+00 0.000000e+00 9.500000e-02
      vertex -2.286274e-02 -4.277318e-02 9.500000e-02
      vertex -2.694516e-02 -4.032627e-02 9.500000e-02
    endloop
  endfacet
  facet normal 0.000000e+00 0.000000e+00 -1.000000e+00
    outer loop
      vertex 0.000000e+00 0.000000e+00 9.500000e-02
      vertex -1.856015e-02 -4.480816e-02 9.500000e-02
      vertex -2.286274e-02 -4.277318e-02 9.500000e-02
    endloop
  endfacet
  facet normal 0.000000e+00 0.000000e+00 -1.000000e+00
    outer loop
      vertex 0.000000e+00 0.000000e+00 9.500000e-02
      vertex -1.407881e-02 -4.641161e-02 9.500000e-02
      vertex -1.856015e-02 -4.480816e-02 9.500000e-02
    endloop
  endfacet
  facet normal 0.000000e+00 0.000000e+00 -1.000000e+00
    outer loop
      vertex 0.000000e+00 0.000000e+00 9.500000e-02
      vertex -9.461881e-03 -4.756809e-02 9.500000e-02
      vertex -1.407881e-02 -4.641161e-02 9.500000e-02
    endloop
  endfacet
  facet normal 0.000000e+00 0.000000e+00 -1.000000e+00
    outer loop
      vertex 0.000000e+00 0.000000e+00 9.500000e-02
      vertex -4.753831e-03 -4.826646e-02 9.500000e-02
      vertex -9.461881e-03 -4.756809e-02 9.500000e-02
    endloop
  endfacet
  facet normal 0.000000e+00 0.000000e+00 -1.000000e+00
    outer loop
      vertex 0.000000e+00 0.000000e+00 9.500000e-02
      vertex -8.909305e-18 -4.850000e-02 9.500000e-02
      vertex -4.753831e-03 -4.826646e-02 9.500000e-02
    endloop
  endfacet
  facet normal 0.000000e+00 -0.000000e+00 -1.000000e+00
    outer loop
      vertex 0.000000e+00 0.000000e+00 9.500000e-02
      vertex 4.753831e-03 -4.826646e-02 9.500000e-02
      vertex -8.909305e-18 -4.850000e-02 9.500000e-02
    endloop
  endfacet
  facet normal 0.000000e+00 0.000000e+00 -1.000000e+00
    outer loop
      vertex 0.000000e+00 0.000000e+00 9.500000e-02
      vertex 9.461881e-03 -4.756809e-02 9.500000e-02
      vertex 4.753831e-03 -4.826646e-02 9.500000e-02
    endloop
  endfacet
  facet normal 0.000000e+00 0.000000e+00 -1.000000e+00
    outer loop
      vertex 0.000000e+00 0.000000e+00 9.500000e-02
      vertex 1.407881e-02 -4.641161e-02 9.500000e-02
      vertex 9.461881e-03 -4.756809e-02 9.500000e-02
    endloop
  endfacet
  facet normal 0.000000e+00 0.000000e+00 -1.000000e+00
    outer loop
      vertex 0.000000e+00 0.000000e+00 9.500000e-02
      vertex 1.856015e-02 -4.480816e-02 9.500000e-02
      vertex 1.407881e-02 -4.641161e-02 9.500000e-02
    endloop
  endfacet
  facet normal 0.000000e+00 0.000000e+00 -1.000000e+00
    outer loop
      vertex 0.000000e+00 0.000000e+00 9.500000e-02
      vertex 2.286274e-02 -4.277318e-02 9.500000e-02
      vertex 1.856015e-02 -4.480816e-02 9.500000e-02
    endloop
  endfacet
  facet normal 0.000000e+00 0.000000e+00 -1.000000e+00
    outer loop
      vertex 0.000000e+00 0.000000e+00 9.500000e-02
      vertex 2.694516e-02 -4.032627e-02 9.500000e-02
      vertex 2.286274e-02 -4.277318e-02 9.500000e-02
    endloop
  endfacet
  facet normal 0.000000e+00 0.000000e+00 -1.000000e+00
    outer loop
      vertex 0.000000e+00 0.000000e+00 9.500000e-02
      vertex 3.076807e-02 -3.749101e-02 9.500000e-02
      vertex 2.694516e-02 -4.032627e-02 9.500000e-02
    endloop
  endfacet
  facet normal 0.000000e+00 0.000000e+00 -1.000000e+00
    outer loop
      vertex 0.000000e+00 0.000000e+00 9.500000e-02
      vertex 3.429468e-02 -3.429468e-02 9.500000e-02
      vertex 3.076807e-02 -3.749101e-02 9.500000e-02
    endloop
  endfacet
  facet normal 0.000000e+00 0.000000e+00 -1.000000e+00
    outer loop
      vertex 0.000000e+00 0.000000e+00 9.500000e-02
      vertex 3.749101e-02 -3.076807e-02 9.500000e-02
      vertex 3.429468e-02 -3.429468e-02 9.500000e-02
    endloop
  endfacet
  facet normal 0.000000e+00 0.000000e+00 -1.000000e+00
    outer loop
      vertex 0.000000e+00 0.000000e+00 9.500000e-02
      vertex 4.032627e-02 -2.694516e-02 9.500000e-02
      vertex 3.749101e-02 -3.076807e-02 9.500000e-02
    endloop
  endfacet
  facet normal 0.000000e+00 0.000000e+00 -1.000000e+00
    outer loop
      vertex 0.000000e+00 0.000000e+00 9.500000e-02
      vertex 4.277318e-02 -2.286274e-02 9.500000e-02
      vertex 4.032627e-02 -2.694516e-02 9.500000e-02
    endloop
  endfacet
  facet normal 0.000000e+00 0.000000e+00 -1.000000e+00
    outer loop
      vertex 0.000000e+00 0.000000e+00 9.500000e-02
      vertex 4.480816e-02 -1.856015e-02 9.500000e-02
      vertex 4.277318e-02 -2.286274e-02 9.500000e-02
    endloop
  endfacet
  facet normal 0.000000e+00 0.000000e+00 -1.000000e+00
    outer loop
      vertex 0.000000e+00 0.000000e+00 9.500000e-02
      vertex 4.641161e-02 -1.407881e-02 9.500000e-02
      vertex 4.480816e-02 -1.856015e-02 9.500000e-02
    endloop
  endfacet
  facet normal 0.000000e+00 0.000000e+00 -1.000000e+00
    outer loop
      vertex 0.000000e+00 0.000000e+00 9.500000e-02
      vertex 4.756809e-02 -9.461881e-03 9.500000e-02
      vertex 4.641161e-02 -1.407881e-02 9.500000e-02
    endloop
  endfacet
  facet normal 0.000000e+00 0.000000e+00 -1.000000e+00
    outer loop
      vertex 0.000000e+00 0.000000e+00 9.500000e-02
      vertex 4.826646e-02 -4.753831e-03 9.500000e-02
      vertex 4.756809e-02 -9.461881e-03 9.500000e-02
    endloop
  endfacet
  facet normal 0.000000e+00 0.000000e+00 -1.000000e+00
    outer loop
      vertex 0.000000e+00 0.000000e+00 9.500000e-02
      vertex 4.850000e-02 0.000000e+00 9.500000e-02
      vertex 4.826646e-02 -4.753831e-03 9.500000e-02
    endloop
  endfacet
  facet normal 0.000000e+00 0.000000e+00 1.000000e+00
    outer loop
      vertex 0.000000e+00 0.000000e+00 1.350000e-01
      vertex 4.850000e-02 0.000000e+00 1.350000e-01
      vertex 4.826646e-02 4.753831e-03 1.350000e-01
    endloop
  endfacet
  facet normal 0.000000e+00 0.000000e+00 1.000000e+00
    outer loop
      vertex 0.000000e+00 0.000000e+00 1.350000e-01
      vertex 4.826646e-02 4.753831e-03 1.350000e-01
      vertex 4.756809e-02 9.461881e-03 1.350000e-01
    endloop
  endfacet
  facet normal 0.000000e+00 0.000000e+00 1.000000e+00
    outer loop
      vertex 0.000000e+00 0.000000e+00 1.350000e-01
      vertex 4.756809e-02 9.461881e-03 1.350000e-01
      vertex 4.641161e-02 1.407881e-02 1.350000e-01
    endloop
  endfacet
  facet normal 0.000000e+00 0.000000e+00 1.000000e+00
    outer loop
      vertex 0.000000e+00 0.000000e+00 1.350000e-01
      vertex 4.641161e-02 1.407881e-02 1.350000e-01
      vertex 4.480816e-02 1.856015e-02 1.350000e-01
    endloop
  endfacet
  facet normal 0.000000e+00 0.000000e+00 1.000000e+00
    outer loop
      vertex 0.000000e+00 0.000000e+00 1.350000e-01
      vertex 4.480816e-02 1.856015e-02 1.350000e-01
      vertex 4.277318e-02 2.286274e-02 1.350000e-01
    endloop
  endfacet
  facet normal 0.000000e+00 0.000000e+00 1.000000e+00
    outer loop
      vertex 0.000000e+00 0.000000e+00 1.350000e-01
      vertex 4.277318e-02 2.286274e-02 1.350000e-01
      vertex 4.032627e-02 2.694516e-02 1.350000e-01
    endloop
  endfacet
  facet normal 0.000000e+00 0.000000e+00 1.000000e+00
    outer loop
      vertex 0.000000e+00 0.000000e+00 1.350000e-01
      vertex 4.032627e-02 2.694516e-02 1.350000e-01
      vertex 3.749101e-02 3.076807e-02 1.350000e-01
    endloop
  endfacet
  facet normal 0.000000e+00 0.000000e+00 1.000000e+00
    outer loop
      vertex 0.000000e+00 0.000000e+00 1.350000e-01
      vertex 3.749101e-02 3.076807e-02 1.350000e-01
      vertex 3.429468e-02 3.429468e-02 1.350000e-01
    endloop
  endfacet
  facet normal 0.000000e+00 0.000000e+00 1.000000e+00
    outer loop
      vertex 0.000000e+00 0.000000e+00 1.350000e-01
      vertex 3.429468e-02 3.429468e-02 1.350000e-01
      vertex 3.076807e-02 3.749101e-02 1.350000e-01
    endloop
  endfacet
  facet normal 0.000000e+00 0.000000e+00 1.000000e+00
    outer loop
      vertex 0.000000e+00 0.000000e+00 1.350000e-01
      vertex 3.076807e-02 3.749101e-02 1.350000e-01
      vertex 2.694516e-02 4.032627e-02 1.350000e-01
    endloop
  endfacet
  facet normal 0.000000e+00 0.000000e+00 1.000000e+00
    outer loop
      vertex 0.000000e+00 0.000000e+00 1.350000e-01
      vertex 2.694516e-02 4.032627e-02 1.350000e-01
      vertex 2.286274e-02 4.277318e-02 1.350000e-01
    endloop
  endfacet
  facet normal 0.000000e+00 0.000000e+00 1.000000e+00
    outer loop
      vertex 0.000000e+00 0.000000e+00 1.350000e-01
      vertex 2.286274e-02 4.277318e-02 1.350000e-01
      vertex 1.856015e-02 4.480816e-02 1.350000e-01
    endloop
  endfacet
  facet normal 0.000000e+00 0.000000e+00 1.000000e+00
    outer loop
      vertex 0.000000e+00 0.000000e+00 1.350000e-01
      vertex 1.856015e-02 4.480816e-02 1.350000e-01
      vertex 1.407881e-02 4.641161e-02 1.350000e-01
    endloop
  endfacet
  facet normal 0.000000e+00 0.000000e+00 1.000000e+00
    outer loop
      vertex 0.000000e+00 0.000000e+00 1.350000e-01
      vertex 1.407881e-02 4.641161e-02 1.350000e-01
      vertex 9.461881e-03 4.756809e-02 1.350000e-01
    endloop
  endfacet
  facet normal 0.000000e+00 0.000000e+00 1.000000e+00
    outer loop
      vertex 0.000000e+00 0.000000e+00 1.350000e-01
      vertex 9.461881e-03 4.756809e-02 1.350000e-01
      vertex 4.753831e-03 4.826646e-02 1.350000e-01
    endloop
  endfacet
  facet normal 0.000000e+00 0.000000e+00 1.000000e+00
    outer loop
      vertex 0.000000e+00 0.000000e+00 1.350000e-01
      vertex 4.753831e-03 4.826646e-02 1.350000e-01
      vertex 2.969768e-18 4.850000e-02 1.350000e-01
    endloop
  endfacet
  facet normal 0.000000e+00 -0.000000e+00 1.000000e+00
    outer loop
      vertex 0.000000e+00 0.000000e+00 1.350000e-01
      vertex 2.969768e-18 4.850000e-02 1.350000e-01
      vertex -4.753831e-03 4.826646e-02 1.350000e-01
    endloop
  endfacet
  facet normal 0.000000e+00 0.000000e+00 1.000000e+00
    outer loop
      vertex 0.000000e+00 0.000000e+00 1.350000e-01
      vertex -4.753831e-03 4.826646e-02 1.350000e-01
      vertex -9.461881e-03 4.756809e-02 1.350000e-01
    endloop
  endfacet
  facet normal 0.000000e+00 0.000000e+00 1.000000e+00
    outer loop
      vertex 0.000000e+00 0.000000e+00 1.350000e-01
      vertex -9.461881e-03 4.756809e-02 1.350000e-01
      vertex -1.407881e-02 4.641161e-02 1.350000e-01
    endloop
  endfacet
  facet normal 0.000000e+00 0.000000e+00 1.000000e+00
    outer loop
      vertex 0.000000e+00 0.000000e+00 1.350000e-01
      vertex -1.407881e-02 4.641161e-02 1.350000e-01
      vertex -1.856015e-02 4.480816e-02 1.350000e-01
    endloop
  endfacet
  facet normal 0.000000e+00 0.000000e+00 1.000000e+00
    outer loop
      vertex 0.000000e+00 0.000000e+00 1.350000e-01
      vertex -1.856015e-02 4.480816e-02 1.350000e-01
      vertex -2.286274e-02 4.277318e-02 1.350000e-01
    endloop
  endfacet
  facet normal 0.000000e+00 0.000000e+00 1.000000e+00
    outer loop
      vertex 0.000000e+00 0.000000e+00 1.350000e-01
      vertex -2.286274e-02 4.277318e-02 1.350000e-01
      vertex -2.694516e-02 4.032627e-02 1.350000e-01
    endloop
  endfacet
  facet normal 0.000000e+00 0.000000e+00 1.000000e+00
    outer loop
      vertex 0.000000e+00 0.000000e+00 1.350000e-01
      vertex -2.694516e-02 4.032627e-02 1.350000e-01
      vertex -3.076807e-02 3.749101e-02 1.350000e-01
    endloop
  endfacet
  facet normal 0.000000e+00 0.000000e+00 1.000000e+00
    outer loop
      vertex 0.000000e+00 0.000000e+00 1.350000e-01
      vertex -3.076807e-02 3.749101e-02 1.350000e-01
      vertex -3.429468e-02 3.429468e-02 1.350000e-01
    endloop
  endfacet
  facet normal 0.000000e+00 0.000000e+00 1.000000e+00
    outer loop
      vertex 0.000000e+00 0.000000e+00 1.350000e-01
      vertex -3.429468e-02 3.429468e-02 1.350000e-01
      vertex -3.749101e-02 3.076807e-02 1.350000e-01
    endloop
  endfacet
  facet normal 0.000000e+00 0.000000e+00 1.000000e+00
    outer loop
      vertex 0.000000e+00 0.000000e+00 1.350000e-01
      vertex -3.749101e-02 3.076807e-02 1.350000e-01
      vertex -4.032627e-02 2.694516e-02 1.350000e-01
    endloop
  endfacet
  facet normal 0.000000e+00 0.000000e+00 1.000000e+00
    outer loop
      vertex 0.000000e+00 0.000000e+00 1.350000e-01
      vertex -4.032627e-02 2.694516e-02 1.350000e-01
      vertex -4.277318e-02 2.286274e-02 1.350000e-01
    endloop
  endfacet
  facet normal 0.000000e+00 0.000000e+00 1.000000e+00
    outer loop
      vertex 0.000000e+00 0.000000e+00 1.350000e-01
      vertex -4.277318e-02 2.286274e-02 1.350000e-01
      vertex -4.480816e-02 1.856015e-02 1.350000e-01
    endloop
  endfacet
  facet normal 0.000000e+00 0.000000e+00 1.000000e+00
    outer loop
      vertex 0.000000e+00 0.000000e+00 1.350000e-01
      vertex -4.480816e-02 1.856015e-02 1.350000e-01
      vertex -4.641161e-02 1.407881e-02 1.350000e-01
    endloop
  endfacet
  facet normal 0.000000e+00 0.000000e+00 1.000000e+00
    outer loop
      vertex 0.000000e+00 0.000000e+00 1.350000e-01
      vertex -4.641161e-02 1.407881e-02 1.350000e-01
      vertex -4.756809e-02 9.461881e-03 1.350000e-01
    endloop
  endfacet
  facet normal 0.000000e+00 0.000000e+00 1.000000e+00
    outer loop
      vertex 0.000000e+00 0.000000e+00 1.350000e-01
      vertex -4.756809e-02 9.461881e-03 1.350000e-01
      vertex -4.826646e-02 4.753831e-03 1.350000e-01
    endloop
  endfacet
  facet normal 0.000000e+00 0.000000e+00 1.000000e+00
    outer loop
      vertex 0.000000e+00 0.000000e+00 1.350000e-01
      vertex -4.826646e-02 4.753831e-03 1.350000e-01
      vertex -4.850000e-02 5.939537e-18 1.350000e-01
    endloop
  endfacet
  facet normal 0.000000e+00 0.000000e+00 1.000000e+00
    outer loop
      vertex 0.000000e+00 0.000000e+00 1.350000e-01
      vertex -4.850000e-02 5.939537e-18 1.350000e-01
      vertex -4.826646e-02 -4.753831e-03 1.350000e-01
    endloop
  endfacet
  facet normal 0.000000e+00 0.000000e+00 1.000000e+00
    outer loop
      vertex 0.000000e+00 0.000000e+00 1.350000e-01
      vertex -4.826646e-02 -4.753831e-03 1.350000e-01
      vertex -4.756809e-02 -9.461881e-03 1.350000e-01
    endloop
  endfacet
  facet normal 0.000000e+00 0.000000e+00 1.000000e+00
    outer loop
      vertex 0.000000e+00 0.000000e+00 1.350000e-01
      vertex -4.756809e-02 -9.461881e-03 1.350000e-01
      vertex -4.641161e-02 -1.407881e-02 1.350000e-01
    endloop
  endfacet
  facet normal 0.000000e+00 0.000000e+00 1.000000e+00
    outer loop
      vertex 0.000000e+00 0.000000e+00 1.350000e-01
      vertex -4.641161e-02 -1.407881e-02 1.350000e-01
      vertex -4.480816e-02 -1.856015e-02 1.350000e-01
    endloop
  endfacet
  facet normal 0.000000e+00 0.000000e+00 1.000000e+00
    outer loop
      vertex 0.000000e+00 0.000000e+00 1.350000e-01
      vertex -4.480816e-02 -1.856015e-02 1.350000e-01
      vertex -4.277318e-02 -2.286274e-02 1.350000e-01
    endloop
  endfacet
  facet normal 0.000000e+00 0.000000e+00 1.000000e+00
    outer loop
      vertex 0.000000e+00 0.000000e+00 1.350000e-01
      vertex -4.277318e-02 -2.286274e-02 1.350000e-01
      vertex -4.032627e-02 -2.694516e-02 1.350000e-01
    endloop
  endfacet
  facet normal 0.000000e+00 0.000000e+00 1.000000e+00
    outer loop
      vertex 0.000000e+00 0.000000e+00 1.350000e-01
      vertex -4.032627e-02 -2.694516e-02 1.350000e-01
      vertex -3.749101e-02 -3.076807e-02 1.350000e-01
    endloop
  endfacet
  facet normal 0.000000e+00 0.000000e+00 1.000000e+00
    outer loop
      vertex 0.000000e+00 0.000000e+00 1.350000e-01
      vertex -3.749101e-02 -3.076807e-02 1.350000e-01
      vertex -3.429468e-02 -3.429468e-02 1.350000e-01
    endloop
  endfacet
  facet normal 0.000000e+00 0.000000e+00 1.000000e+00
    outer loop
      vertex 0.000000e+00 0.000000e+00 1.350000e-01
      vertex -3.429468e-02 -3.429468e-02 1.350000e-01
      vertex -3.076807e-02 -3.749101e-02 1.350000e-01
    endloop
  endfacet
  facet normal 0.000000e+00 0.000000e+00 1.000000e+00
    outer loop
      vertex 0.000000e+00 0.000000e+00 1.350000e-01
      vertex -3.076807e-02 -3.749101e-02 1.350000e-01
      vertex -2.694516e-02 -4.032627e-02 1.350000e-01
    endloop
  endfacet
  facet normal 0.000000e+00 0.000000e+00 1.000000e+00
    outer loop
      vertex 0.000000e+00 0.000000e+00 1.350000e-01
      vertex -2.694516e-02 -4.032627e-02 1.350000e-01
      vertex -2.286274e-02 -4.277318e-02 1.350000e-01
    endloop
  endfacet
  facet normal 0.000000e+00 0.000000e+00 1.000000e+00
    outer loop
      vertex 0.000000e+00 0.000000e+00 1.350000e-01
      vertex -2.286274e-02 -4.277318e-02 1.350000e-01
      vertex -1.856015e-02 -4.480816e-02 1.350000e-01
    endloop
  endfacet
  facet normal 0.000000e+00 0.000000e+00 1.000000e+00
    outer loop
      vertex 0.000000e+00 0.000000e+00 1.350000e-01
      vertex -1.856015e-02 -4.480816e-02 1.350000e-01
      vertex -1.407881e-02 -4.641161e-02 1.350000e-01
    endloop
  endfacet
  facet normal 0.000000e+00 0.000000e+00 1.000000e+00
    outer loop
      vertex 0.000000e+00 0.000000e+00 1.350000e-01
      vertex -1.407881e-02 -4.641161e-02 1.350000e-01
      vertex -9.461881e-03 -4.756809e-02 1.350000e-01
    endloop
  endfacet
  facet normal 0.000000e+00 0.000000e+00 1.000000e+00
    outer loop
      vertex 0.000000e+00 0.000000e+00 1.350000e-01
      vertex -9.461881e-03 -4.756809e-02 1.350000e-01
      vertex -4.753831e-03 -4.826646e-02 1.350000e-01
    endloop
  endfacet
  facet normal 0.000000e+00 0.000000e+00 1.000000e+00
    outer loop
      vertex 0.000000e+00 0.000000e+00 1.350000e-01
      vertex -4.753831e-03 -4.826646e-02 1.350000e-01
      vertex -8.909305e-18 -4.850000e-02 1.350000e-01
    endloop
  endfacet
  facet normal 0.000000e+00 0.000000e+00 1.000000e+00
    outer loop
      vertex 0.000000e+00 0.000000e+00 1.350000e-01
      vertex -8.909305e-18 -4.850000e-02 1.350000e-01
      vertex 4.753831e-03 -4.826646e-02 1.350000e-01
    endloop
  endfacet
  facet normal 0.000000e+00 0.000000e+00 1.000000e+00
    outer loop
      vertex 0.000000e+00 0.000000e+00 1.350000e-01
      vertex 4.753831e-03 -4.826646e-02 1.350000e-01
      vertex 9.461881e-03 -4.756809e-02 1.350000e-01
    endloop
  endfacet
  facet normal 0.000000e+00 0.000000e+00 1.000000e+00
    outer loop
      vertex 0.000000e+00 0.000000e+00 1.350000e-01
      vertex 9.461881e-03 -4.756809e-02 1.350000e-01
      vertex 1.407881e-02 -4.641161e-02 1.350000e-01
    endloop
  endfacet
  facet normal 0.000000e+00 0.000000e+00 1.000000e+00
    outer loop
      vertex 0.000000e+00 0.000000e+00 1.350000e-01
      vertex 1.407881e-02 -4.641161e-02 1.350000e-01
      vertex 1.856015e-02 -4.480816e-02 1.350000e-01
    endloop
  endfacet
  facet normal 0.000000e+00 0.000000e+00 1.000000e+00
    outer loop
      vertex 0.000000e+00 0.000000e+00 1.350000e-01
      vertex 1.856015e-02 -4.480816e-02 1.350000e-01
      vertex 2.286274e-02 -4.277318e-02 1.350000e-01
    endloop
  endfacet
  facet normal 0.000000e+00 0.000000e+00 1.000000e+00
    outer loop
      vertex 0.000000e+00 0.000000e+00 1.350000e-01
      vertex 2.286274e-02 -4.277318e-02 1.350000e-01
      vertex 2.694516e-02 -4.032627e-02 1.350000e-01
    endloop
  endfacet
  facet normal 0.000000e+00 0.000000e+00 1.000000e+00
    outer loop
      vertex 0.000000e+00 0.000000e+00 1.350000e-01
      vertex 2.694516e-02 -4.032627e-02 1.350000e-01
      vertex 3.076807e-02 -3.749101e-02 1.350000e-01
    endloop
  endfacet
  facet normal 0.000000e+00 0.000000e+00 1.000000e+00
    outer loop
      vertex 0.000000e+00 0.000000e+00 1.350000e-01
      vertex 3.076807e-02 -3.749101e-02 1.350000e-01
      vertex 3.429468e-02 -3.429468e-02 1.350000e-01
    endloop
  endfacet
  facet normal 0.000000e+00 0.000000e+00 1.000000e+00
    outer loop
      vertex 0.000000e+00 0.000000e+00 1.350000e-01
      vertex 3.429468e-02 -3.429468e-02 1.350000e-01
      vertex 3.749101e-02 -3.076807e-02 1.350000e-01
    endloop
  endfacet
  facet normal 0.000000e+00 0.000000e+00 1.000000e+00
    outer loop
      vertex 0.000000e+00 0.000000e+00 1.350000e-01
      vertex 3.749101e-02 -3.076807e-02 1.350000e-01
      vertex 4.032627e-02 -2.694516e-02 1.350000e-01
    endloop
  endfacet
  facet normal 0.000000e+00 0.000000e+00 1.000000e+00
    outer loop
      vertex 0.000000e+00 0.000000e+00 1.350000e-01
      vertex 4.032627e-02 -2.694516e-02 1.350000e-01
      vertex 4.277318e-02 -2.286274e-02 1.350000e-01
    endloop
  endfacet
  facet normal 0.000000e+00 0.000000e+00 1.000000e+00
    outer loop
      vertex 0.000000e+00 0.000000e+00 1.350000e-01
      vertex 4.277318e-02 -2.286274e-02 1.350000e-01
      vertex 4.480816e-02 -1.856015e-02 1.350000e-01
    endloop
  endfacet
  facet normal 0.000000e+00 0.000000e+00 1.000000e+00
    outer loop
      vertex 0.000000e+00 0.000000e+00 1.350000e-01
      vertex 4.480816e-02 -1.856015e-02 1.350000e-01
      vertex 4.641161e-02 -1.407881e-02 1.350000e-01
    endloop
  endfacet
  facet normal 0.000000e+00 0.000000e+00 1.000000e+00
    outer loop
      vertex 0.000000e+00 0.000000e+00 1.350000e-01
      vertex 4.641161e-02 -1.407881e-02 1.350000e-01
      vertex 4.756809e-02 -9.461881e-03 1.350000e-01
    endloop
  endfacet
  facet normal 0.000000e+00 0.000000e+00 1.000000e+00
    outer loop
      vertex 0.000000e+00 0.000000e+00 1.350000e-01
      vertex 4.756809e-02 -9.461881e-03 1.350000e-01
      vertex 4.826646e-02 -4.753831e-03 1.350000e-01
    endloop
  endfacet
  facet normal -0.000000e+00 0.000000e+00 1.000000e+00
    outer loop
      vertex 0.000000e+00 0.000000e+00 1.350000e-01
      vertex 4.826646e-02 -4.753831e-03 1.350000e-01
      vertex 4.850000e-02 0.000000e+00 1.350000e-01
    endloop
  endfacet
endsolid exhaustValveRightInterface
