solid intakeManifold
  facet normal 0.000000e+00 0.000000e+00 1.000000e+00
    outer loop
      vertex -6.000000e-02 4.000000e-02 4.750000e-02
      vertex 6.000000e-02 4.000000e-02 4.750000e-02
      vertex 6.000000e-02 1.200000e-01 4.750000e-02
    endloop
  endfacet
  facet normal 0.000000e+00 0.000000e+00 1.000000e+00
    outer loop
      vertex -6.000000e-02 4.000000e-02 4.750000e-02
      vertex 6.000000e-02 1.200000e-01 4.750000e-02
      vertex -6.000000e-02 1.200000e-01 4.750000e-02
    endloop
  endfacet
  facet normal 0.000000e+00 0.000000e+00 -1.000000e+00
    outer loop
      vertex -6.000000e-02 4.000000e-02 8.750000e-02
      vertex 6.000000e-02 1.200000e-01 8.750000e-02
      vertex 6.000000e-02 4.000000e-02 8.750000e-02
    endloop
  endfacet
  facet normal 0.000000e+00 0.000000e+00 -1.000000e+00
    outer loop
      vertex -6.000000e-02 4.000000e-02 8.750000e-02
      vertex -6.000000e-02 1.200000e-01 8.750000e-02
      vertex 6.000000e-02 1.200000e-01 8.750000e-02
    endloop
  endfacet
  facet normal 0.000000e+00 1.000000e+00 0.000000e+00
    outer loop
      vertex -6.000000e-02 4.000000e-02 4.750000e-02
      vertex -6.000000e-02 4.000000e-02 8.750000e-02
      vertex 6.000000e-02 4.000000e-02 8.750000e-02
    endloop
  endfacet
  facet normal 0.000000e+00 1.000000e+00 0.000000e+00
    outer loop
      vertex -6.000000e-02 4.000000e-02 4.750000e-02
      vertex 6.000000e-02 4.000000e-02 8.750000e-02
      vertex 6.000000e-02 4.000000e-02 4.750000e-02
    endloop
  endfacet
  facet normal 0.000000e+00 -1.000000e+00 0.000000e+00
    outer loop
      vertex 6.000000e-02 1.200000e-01 4.750000e-02
      vertex 6.000000e-02 1.200000e-01 8.750000e-02
      vertex -6.000000e-02 1.200000e-01 8.750000e-02
    endloop
  endfacet
  facet normal 0.000000e+00 -1.000000e+00 0.000000e+00
    outer loop
      vertex 6.000000e-02 1.200000e-01 4.750000e-02
      vertex -6.000000e-02 1.200000e-01 8.750000e-02
      vertex -6.000000e-02 1.200000e-01 4.750000e-02
    endloop
  endfacet
  facet normal 1.000000e+00 0.000000e+00 0.000000e+00
    outer loop
      vertex -6.000000e-02 4.000000e-02 4.750000e-02
      vertex -6.000000e-02 1.200000e-01 4.750000e-02
      vertex -6.000000e-02 1.200000e-01 8.750000e-02
    endloop
  endfacet
  facet normal 1.000000e+00 0.000000e+00 0.000000e+00
    outer loop
      vertex -6.000000e-02 4.000000e-02 4.750000e-02
      vertex -6.000000e-02 1.200000e-01 8.750000e-02
      vertex -6.000000e-02 4.000000e-02 8.750000e-02
    endloop
  endfacet
  facet normal -1.000000e+00 0.000000e+00 0.000000e+00
    outer loop
      vertex 6.000000e-02 4.000000e-02 4.750000e-02
      vertex 6.000000e-02 4.000000e-02 8.750000e-02
      vertex 6.000000e-02 1.200000e-01 8.750000e-02
    endloop
  endfacet
  facet normal -1.000000e+00 0.000000e+00 0.000000e+00
    outer loop
      vertex 6.000000e-02 4.000000e-02 4.750000e-02
      vertex 6.000000e-02 1.200000e-01 8.750000e-02
      vertex 6.000000e-02 1.200000e-01 4.750000e-02
    endloop
  endfacet
endsolid intakeManifold
